<svg height="20.729" viewBox="0 0 20 20.729" width="20" xmlns="http://www.w3.org/2000/svg"><g fill="none" stroke="#0b86df" stroke-linecap="round" stroke-linejoin="round" stroke-width="2"><path d="m347.018 1558.76-6.783 5.28a4.274 4.274 0 0 0 -.843.75 1.9 1.9 0 0 0 -.318.65 4.335 4.335 0 0 0 -.074 1.13v7.23a4.986 4.986 0 0 0 .218 2.11 2.018 2.018 0 0 0 .874.87 4.928 4.928 0 0 0 2.108.22h11.6a4.928 4.928 0 0 0 2.108-.22 2.018 2.018 0 0 0 .874-.87 4.986 4.986 0 0 0 .218-2.11v-7.23a4.335 4.335 0 0 0 -.074-1.13 1.9 1.9 0 0 0 -.318-.65 4.274 4.274 0 0 0 -.843-.75l-6.783-5.28a2.315 2.315 0 0 0 -.721-.46 1.149 1.149 0 0 0 -.522 0 2.315 2.315 0 0 0 -.721.46z" transform="translate(-338 -1557.271)"/><path d="m355 537v-6m-3 3h6" transform="translate(-345 -522.271)"/></g></svg>