<svg fill="none" height="19" viewBox="0 0 22 19" width="22" xmlns="http://www.w3.org/2000/svg"><path d="m1.49999 8.75c-.552285 0-1 .44772-1 1 0 .5523.447715 1 1 1zm19.00001 2c.5523 0 1-.4477 1-1 0-.55228-.4477-1-1-1zm-12.53341-10c-.55228 0-1 .44772-1 1s.44772 1 1 1zm8.15751 1.164-.3261.94533v.00001zm1.121.69299.6999-.71424-.0004-.0004zm1.0816 1.79602.8945-.44713-.0001-.00015zm2.1665 4.33398-.8945.44713.0005.00102zm.3502.76501-.9482.31776.0009.0027zm.1276.54-.9904.1383.0001.0004zm-.298 6.07.8909.4542.0002-.0004zm-1.311 1.311.454.891.0004-.0002zm-16.724 0-.45441.8908.0004.0002zm-1.311-1.311-.89108.4538.000212.0005zm-.298-6.07.99033.1387.00006-.0004zm.1276-.54.94726.32046.00092-.00272zm.3501-.76501.89405.44796.00041-.00081zm2.1666-4.33398-.89439-.44728-.00007.00013zm1.0816-1.79602-.6995-.71464-.0004.0004zm1.121-.69299.3261.94534.00001-.00001zm2.0907.836c.55228 0 1-.44772 1-1s-.44772-1-1-1zm-6.46661 8h3.382v-2h-3.382zm3.382 0c.30653 0 .58655.1731.72352.4471l1.78896-.8942c-.47583-.95196-1.44861-1.5529-2.51248-1.5529zm.72352.4471c.47583.952 1.44861 1.5529 2.51248 1.5529v-2c-.30653 0-.58655-.1731-.72352-.4471zm2.51248 1.5529h5.76401v-2h-5.76401zm5.76401 0c1.0639 0 2.0366-.6009 2.5125-1.5529l-1.789-.8942c-.1369.274-.417.4471-.7235.4471zm2.5125-1.5529c.1369-.274.417-.4471.7235-.4471v-2c-1.0639 0-2.0366.60094-2.5125 1.5529zm.7235-.4471h3.382v-2h-3.382zm-9.15141-8h6.06681v-2h-6.06681zm6.06681 0c1.1494 0 1.4855.01305 1.7646.10933l.6522-1.890661c-.6717-.231719-1.4124-.218669-2.4168-.218669zm1.7646.10934c.2799.09654.5354.25454.7476.46229l1.399-1.42928c-.4232-.41419-.9335-.73019-1.4944-.923685zm.7472.46189c.2111.20689.3733.50167.8871 1.52906l1.7888-.89456c-.4494-.89863-.7688-1.56589-1.2761-2.06298zm.887 1.52891 2.1665 4.33398 1.789-.89426-2.1665-4.33398zm2.167 4.335c.2007.40027.2569.51779.296.63462l1.8964-.63552c-.0943-.28123-.2271-.54165-.4045-.8954zm.2969.63732c.039.11509.0674.23504.0845.35784l1.9808-.27664c-.0343-.24525-.0913-.48723-.1707-.72212zm.0846.35824c.0171.1222.0193.2536.0193.7023h2c0-.3953.0022-.6879-.0387-.97974zm.0193.7023v2.067h2v-2.067zm0 2.067c0 .8565-.0008 1.4387-.0376 1.8888-.0358.4384-.1007.6627-.1805.8193l1.7822.9077c.2472-.4854.3458-1.002.3917-1.5641.045-.5504.0442-1.2282.0442-2.0517zm-.2179 2.7077c-.1917.3761-.4978.6823-.8745.8745l.9088 1.7816c.7523-.3838 1.364-.9955 1.7475-1.7476zm-.8741.8743c-.1565.0797-.3807.1446-.8191.1804-.45.0368-1.0323.0376-1.8889.0376v2c.8236 0 1.5014.0008 2.0518-.0442.5622-.0459 1.0788-.1445 1.5642-.3918zm-2.708.218h-10.4v2h10.4zm-10.4 0c-.85661 0-1.43888-.0008-1.88896-.0376-.43838-.0358-.66259-.1007-.81903-.1804l-.90802 1.782c.48536.2473 1.00204.3459 1.56416.3918.55042.045 1.22825.0442 2.05185.0442zm-2.70759-.2178c-.3767-.1922-.68279-.4984-.87454-.8745l-1.781738.9086c.383452.7519.995158 1.3637 1.747458 1.7475zm-.87433-.8741c-.07978-.1566-.14471-.3809-.18053-.8193-.03677-.4501-.03755-1.0323-.03755-1.8888h-2c0 .8235-.00077784 1.5013.0441967 2.0517.0459312.5621.1445053 1.0787.3917233 1.5641zm-.21808-2.7081v-2.067h-2v2.067zm0-2.067c0-.4488.00221-.5801.01933-.7023l-1.9806614-.27744c-.04088065.29184-.0386686.58444-.0386686.97974zm.01939-.7027c.01715-.1228.04553-.24275.08447-.35784l-1.894521-.64092c-.079464.23489-.1364756.47687-.1707271.72212zm.08539-.36056c.03917-.1169.09535-.23438.29597-.63479l-1.788102-.89592c-.177176.35361-.310001.61405-.404225.89523zm.29638-.6356 2.1666-4.33398-1.78892-.8943-2.166599 4.33398zm2.16653-4.33385c.5138-1.02739.67598-1.32217.88711-1.52906l-1.3998-1.42848c-.50727.49709-.82669 1.16435-1.27609 2.06298zm.88671-1.52866c.21224-.20775.46772-.36575.7476-.46229l-.6522-1.890675c-.56092.193495-1.07124.509495-1.4944.923685zm.74761-.4623c.2791-.09628.6152-.10933 1.76459-.10933v-2c-1.00441 0-1.74511-.01305-2.41681.218669zm1.76459-2.10933h-.00001v2h.00001z" fill="#0b86df"/></svg>