<svg fill="none" height="22" viewBox="0 0 21 22" width="21" xmlns="http://www.w3.org/2000/svg"><path d="m19.5 10c.5523 0 1-.44771 1-1 0-.55228-.4477-1-1-1zm-18-2c-.552285 0-1 .44772-1 1 0 .55229.447715 1 1 1zm14-7c0-.552285-.4477-1-1-1s-1 .447715-1 1zm-2 4c0 .55228.4477 1 1 1s1-.44772 1-1zm-6-4c0-.552285-.44772-1-1-1s-1 .447715-1 1zm-2 4c0 .55228.44772 1 1 1s1-.44772 1-1zm12.36 15.6699-.4409-.8975c-.0059.0028-.0117.0058-.0175.0088zm1.31-1.3098-.8888-.4582c-.003.0057-.0058.0114-.0086.0172zm0-14.72008-.8975.4409c.0028.00581.0057.01159.0087.01734zm-1.31-1.31006-.4583.88883c.0058.00296.0116.00587.0174.00873zm-14.71998 0 .4409.89756c.00581-.00286.01159-.00577.01734-.00873zm-1.31006 1.31006.88883.45824c.00296-.00575.00587-.01153.00873-.01734zm0 14.72008.89748-.441c-.00282-.0058-.00569-.0115-.00861-.0172zm1.31006 1.3098.45837-.8887c-.0058-.003-.01163-.006-.01748-.0088zm16.35998-12.6699h-18v2h18zm-6-7v4h2v-4zm-8 0v4h2v-4zm.80005 21h8.39995v-2h-8.39995zm8.39995 0c.8233 0 1.5016.0008 2.0522-.0446.5625-.0465 1.0803-.1462 1.5662-.3967l-.9168-1.7775c-.1542.0795-.3764.1448-.8139.1809-.4493.0371-1.031.0379-1.8877.0379zm3.6009-.4325c.7686-.3776 1.3891-.9981 1.7666-1.7663l-1.7949-.8821c-.1825.3713-.482.6707-.8535.8533zm1.758-1.7492c.2504-.4858.3501-1.0036.3965-1.5661.0454-.5507.0446-1.2289.0446-2.0522h-2c0 .8566-.0008 1.4384-.0379 1.8877-.0361.4376-.1014.6599-.1809.8142zm.4411-3.6183v-8.39995h-2v8.39995zm0-8.39995c0-.82335.0008-1.50159-.0446-2.05224-.0464-.56247-.1461-1.08026-.3965-1.56603l-1.7777.91648c.0795.15424.1448.37644.1809.81397.0371.44935.0379 1.03112.0379 1.88782zm-.4324-3.60093c-.3776-.7686-.9981-1.38916-1.7667-1.76672l-.8818 1.79512c.3715.1825.6709.48186.8534.8534zm-1.7494-1.75799c-.4858-.25044-1.0035-.3501-1.566-.3965-.5507-.04542-1.2289-.04463-2.0522-.04463v2c.8566 0 1.4384.00079 1.8878.03786.4375.03609.6597.10141.8139.18093zm-3.6182-.44113h-8.39995v2h8.39995zm-8.39995 0c-.82336 0-1.50159-.00079-2.05224.04463-.56247.0464-1.08026.14606-1.56603.3965l.91648 1.77766c.15424-.07952.37644-.14484.81397-.18093.44935-.03707 1.03112-.03786 1.88782-.03786zm-3.60093.4324c-.7686.37756-1.38916.99812-1.766717 1.76672l1.795117.8818c.1825-.37154.48186-.6709.8534-.8534zm-1.757989 1.74938c-.250441.48577-.350103 1.00356-.396501 1.56603-.045423.55065-.04463 1.22889-.04463 2.05224h2c0-.8567.00079-1.43847.03786-1.88782.03609-.43753.10141-.65973.18093-.81397zm-.441131 3.61827v8.39995h2v-8.39995zm0 8.39995c0 .8232-.000793 1.5015.04463 2.0522.046397.5625.146054 1.0803.396463 1.5661l1.777737-.9164c-.07955-.1543-.14488-.3766-.18097-.8142-.03707-.4493-.03786-1.0311-.03786-1.8877zm.43248 3.6012c.37755.7682.99806 1.3887 1.76665 1.7663l.88178-1.7951c-.37155-.1825-.67096-.482-.85347-.8533zm1.74917 1.7575c.4858.2505 1.00363.3502 1.56613.3967.55067.0454 1.22892.0446 2.05227.0446v-2c-.8567 0-1.43846-.0008-1.88779-.0379-.4375-.0361-.65966-.1014-.81387-.1809z" fill="#0b86df"/></svg>