<svg fill="none" height="23" viewBox="0 0 22 23" width="22" xmlns="http://www.w3.org/2000/svg"><path d="m12 5.5c0-.55228-.4477-1-1-1s-1 .44772-1 1zm-1 6h-1c0 .3788.214.725.5528.8944zm3.5528 2.8944c.494.247 1.0946.0468 1.3416-.4472s.0468-1.0946-.4472-1.3416zm-4.5528-8.8944v6h2v-6zm.5528 6.8944 4 2 .8944-1.7888-4-2zm9.4472-.8944c0 4.9677-4.0323 9-9 9v2c6.0723 0 11-4.9277 11-11zm-9 9c-4.96774 0-9-4.0323-9-9h-2c0 6.0723 4.9277 11 11 11zm-9-9c0-4.96774 4.03226-9 9-9v-2c-6.0723 0-11 4.9277-11 11zm9-9c4.9677 0 9 4.03226 9 9h2c0-6.0723-4.9277-11-11-11z" fill="#0b86df"/></svg>