<svg height="51" viewBox="0 0 175 51" width="175" xmlns="http://www.w3.org/2000/svg"><g transform="translate(0 4)"><path d="m22 0a22 22 0 1 0 21.7 25.667h-.158a14.667 14.667 0 1 1 0-7.333h.158a22.006 22.006 0 0 0 -21.7-18.334z" fill="#a4bcfd"/><g fill="#3538cd"><path d="m0 22a22 22 0 0 1 43.7-3.667h-14.829a14.669 14.669 0 0 0 -28.871 3.667z"/><path d="m0 22a22 22 0 0 0 43.7 3.667h-14.829a14.669 14.669 0 0 1 -28.871-3.667z"/></g></g><text fill="#3638cd" font-family="Lora" font-size="24" font-weight="700" transform="translate(65 24)"><tspan x="0" y="0">Common</tspan><tspan x="0" y="20">Mortgage</tspan></text></svg>