<svg height="18" viewBox="0 0 20 20" width="18" xmlns="http://www.w3.org/2000/svg"><path d="m629 457h-16.4a2.484 2.484 0 0 1 -1.054-.109 1 1 0 0 1 -.437-.437 2.485 2.485 0 0 1 -.109-1.054v-16.4m17 5-3.919 4.183a1.162 1.162 0 0 1 -.312.278.5.5 0 0 1 -.253.044 1.157 1.157 0 0 1 -.387-.159l-3.258-1.692a1.157 1.157 0 0 0 -.387-.159.5.5 0 0 0 -.253.044 1.162 1.162 0 0 0 -.312.278l-3.919 4.183" fill="none" stroke="#0b86df" stroke-linecap="round" stroke-linejoin="round" stroke-width="2" transform="translate(-610 -438)"/></svg>