<svg height="44" viewBox="0 0 164 44" width="164" xmlns="http://www.w3.org/2000/svg"><g><path d="m15.714 31.429a15.728 15.728 0 0 0 15.451-18.594 15.728 15.728 0 0 0 -18.33 18.33 15.8 15.8 0 0 0 2.879.264z" fill="#175cd3"/><g fill-rule="evenodd"><path d="m12.835 31.165a15.716 15.716 0 1 1 18.33-18.33 15.728 15.728 0 0 0 -18.33 18.33z" fill="#1570ef"/><path d="m15.714 31.428a15.729 15.729 0 0 0 15.451-18.593 15.716 15.716 0 1 1 -18.33 18.33 15.8 15.8 0 0 0 2.879.263z" fill="#2e90fa"/></g></g><text fill="#3a3a3a" font-family="Inter" font-size="24" font-weight="700" transform="translate(54 31)"><tspan x="0" y="0">Cyclones</tspan></text></svg>