<svg height="44" viewBox="0 0 201 44" width="201" xmlns="http://www.w3.org/2000/svg"><g><path d="m22 34.467a12.467 12.467 0 1 0 -12.467-12.467 12.467 12.467 0 0 0 12.467 12.467zm0 9.533a22 22 0 1 0 -22-22 22 22 0 0 0 22 22z" fill-rule="evenodd"/><path d="m22.251 22.482a5.867 5.867 0 0 1 8.3 0l11.405 11.408a5.867 5.867 0 1 1 -8.3 8.3l-11.405-11.412a5.867 5.867 0 0 1 0-8.296z" fill="#f670c7"/><path d="m25.455 33.982 7.245 7.245a22.106 22.106 0 0 0 8.36-8.233l-7.186-7.186a12.494 12.494 0 0 1 -8.419 8.174z" fill="#6519ba"/></g><text font-family="Inter" font-size="24" font-weight="700" transform="translate(59 31)"><tspan x="0" y="0">Finance cue</tspan></text></svg>