<svg height="44" viewBox="0 0 180 44" width="180" xmlns="http://www.w3.org/2000/svg"><path d="m33.881 22a19.412 19.412 0 0 1 -28.938 0 19.412 19.412 0 0 1 28.938 0z" fill="#fff"/><g fill-rule="evenodd"><path d="m0 34.941a19.412 19.412 0 0 1 19.412-19.412 19.363 19.363 0 0 0 -14.469 6.471 19.412 19.412 0 0 0 28.938 0 19.339 19.339 0 0 1 4.943 12.941v7.333a1.725 1.725 0 0 1 -1.724 1.726h-35.375a1.725 1.725 0 0 1 -1.725-1.725z" fill="#7cd4fd"/><path d="m12.131 27.059a19.455 19.455 0 0 1 -7.188-5.059 19.412 19.412 0 0 1 28.938 0 19.339 19.339 0 0 0 4.943-12.941v-7.334a1.725 1.725 0 0 0 -1.724-1.725h-35.375a1.725 1.725 0 0 0 -1.725 1.725v7.334a19.418 19.418 0 0 0 12.131 18z" fill="#0ba5ec"/></g><text fill="#0a86df" font-family="Inter" font-size="24" font-weight="700" transform="translate(59 31)"><tspan x="0" y="0">Glasshour</tspan></text></svg>