<svg height="43.43" viewBox="0 0 198 43.43" width="198" xmlns="http://www.w3.org/2000/svg"><g transform="translate(-.285 -.281)"><path d="m13.278 20.318a11.011 11.011 0 0 1 7.045-7.044l19.128-5.127c3.068-.822 4.889 1 4.067 4.067l-5.127 19.129a11.011 11.011 0 0 1 -7.044 7.044l-19.129 5.127c-3.068.822-4.889-1-4.067-4.067z" fill="#9e77ed"/><path d="m5.609 12.649a11.011 11.011 0 0 1 7.044-7.049l19.129-5.121c3.068-.822 4.889 1 4.067 4.067l-5.126 19.128a11.011 11.011 0 0 1 -7.044 7.044l-19.13 5.127c-3.068.822-4.889-1-4.067-4.067z" fill="#6941c6"/></g><text fill="#6941c6" font-family="Inter" font-size="24" font-weight="700" transform="translate(54 30.715)"><tspan x="0" y="0">Home smart</tspan></text></svg>