<svg width="244" height="186" viewBox="0 0 244 186" fill="none" xmlns="http://www.w3.org/2000/svg">
<path fill-rule="evenodd" clip-rule="evenodd" d="M108.412 87.0067C106.494 76.1288 113.758 65.7556 124.636 63.8376L203.42 49.9457C214.298 48.0277 224.671 55.291 226.589 66.1689L240.481 144.954C242.399 155.831 235.136 166.205 224.258 168.123L145.473 182.015C134.596 183.933 124.222 176.669 122.304 165.791L108.412 87.0067Z" fill="#0FB76A"/>
<path d="M164.444 113.765C164.252 112.678 163.215 111.951 162.127 112.143C161.039 112.335 160.313 113.372 160.504 114.46L164.444 113.765ZM161.872 122.214C162.064 123.302 163.101 124.028 164.189 123.837C165.276 123.645 166.003 122.607 165.811 121.52L161.872 122.214ZM187.023 105.787C186.831 104.699 185.794 103.972 184.706 104.164C183.618 104.356 182.892 105.393 183.083 106.481L187.023 105.787ZM184.451 114.235C184.643 115.323 185.68 116.049 186.768 115.858C187.855 115.666 188.582 114.628 188.39 113.541L184.451 114.235ZM181.405 96.7829L181.058 94.8133C179.97 95.0051 179.244 96.0424 179.436 97.1302L181.405 96.7829ZM190.226 96.5667L189.726 98.5032C189.79 98.5197 189.855 98.5331 189.92 98.5432L190.226 96.5667ZM190.785 96.8078L191.976 95.2011C191.947 95.1796 191.918 95.1589 191.887 95.1391L190.785 96.8078ZM191.403 97.4785L189.664 98.4664C189.669 98.4745 189.674 98.4826 189.678 98.4906L191.403 97.4785ZM191.666 98.2917L189.696 98.639L191.666 98.2917ZM195.34 119.131L197.31 118.784L195.34 119.131ZM195.623 122.28L197.502 122.964C197.504 122.959 197.505 122.955 197.507 122.95L195.623 122.28ZM194.742 123.314L193.768 121.567L193.759 121.573L194.742 123.314ZM191.182 123.522L191.147 125.522L191.147 125.522L191.182 123.522ZM158.668 131.434L159.168 129.497C159.104 129.481 159.039 129.468 158.974 129.457L158.668 131.434ZM158.109 131.193L156.918 132.799C156.947 132.821 156.976 132.841 157.006 132.861L158.109 131.193ZM157.491 130.522L159.231 129.535C159.226 129.527 159.221 129.518 159.216 129.51L157.491 130.522ZM153.272 105.721L151.392 105.037C151.391 105.042 151.389 105.046 151.387 105.051L153.272 105.721ZM154.152 104.686L155.126 106.433L155.135 106.428L154.152 104.686ZM157.713 104.478L157.747 102.479L157.747 102.479L157.713 104.478ZM181.405 96.7829L181.753 98.7525C182.841 98.5607 183.567 97.5234 183.375 96.4356L181.405 96.7829ZM160.504 114.46L161.872 122.214L165.811 121.52L164.444 113.765L160.504 114.46ZM183.083 106.481L184.451 114.235L188.39 113.541L187.023 105.787L183.083 106.481ZM181.753 98.7525C186.319 97.9473 188.708 98.2402 189.726 98.5032L190.726 94.6302C188.985 94.1805 185.985 93.9445 181.058 94.8133L181.753 98.7525ZM189.92 98.5432C189.955 98.5485 189.93 98.5455 189.888 98.5355C189.835 98.5229 189.773 98.5042 189.712 98.4791C189.655 98.456 189.621 98.4368 189.617 98.4345C189.615 98.4336 189.633 98.4439 189.683 98.4766L191.887 95.1391C191.712 95.023 191.487 94.8829 191.22 94.7745C190.917 94.651 190.662 94.6103 190.532 94.5903L189.92 98.5432ZM189.594 98.4145C189.579 98.4033 189.568 98.3948 189.562 98.39C189.556 98.3852 189.553 98.3823 189.553 98.3819C189.552 98.3815 189.558 98.3862 189.569 98.3969C189.592 98.4188 189.623 98.4502 189.657 98.4859C189.673 98.5031 189.687 98.5194 189.7 98.534C189.713 98.5488 189.722 98.5599 189.728 98.5667C189.734 98.5741 189.732 98.5722 189.724 98.5615C189.72 98.5558 189.713 98.5456 189.704 98.5312C189.694 98.5171 189.681 98.4952 189.664 98.4664L193.142 96.4905C192.967 96.1827 192.718 95.9036 192.585 95.7612C192.437 95.6017 192.21 95.3747 191.976 95.2011L189.594 98.4145ZM189.678 98.4906C189.689 98.5097 189.687 98.5075 189.679 98.4898C189.67 98.4699 189.663 98.4486 189.658 98.4319C189.654 98.4188 189.655 98.4212 189.663 98.4559C189.666 98.4733 189.67 98.4959 189.676 98.5272C189.682 98.5592 189.688 98.5941 189.696 98.639L193.635 97.9444C193.568 97.5626 193.491 97.0845 193.128 96.4664L189.678 98.4906ZM189.696 98.639L193.371 119.478L197.31 118.784L193.635 97.9444L189.696 98.639ZM193.371 119.478C193.531 120.389 193.632 120.97 193.678 121.391C193.729 121.856 193.667 121.81 193.739 121.609L197.507 122.95C197.761 122.237 197.713 121.499 197.655 120.959C197.591 120.374 197.46 119.637 197.31 118.784L193.371 119.478ZM193.744 121.595C193.733 121.625 193.724 121.645 193.719 121.657C193.714 121.669 193.712 121.672 193.714 121.668C193.716 121.664 193.722 121.654 193.732 121.64C193.741 121.626 193.753 121.61 193.767 121.593C193.782 121.576 193.796 121.562 193.808 121.55C193.821 121.538 193.83 121.531 193.834 121.528C193.837 121.525 193.835 121.527 193.825 121.534C193.814 121.541 193.796 121.552 193.769 121.567L195.716 125.061C196.08 124.858 196.469 124.589 196.812 124.188C197.154 123.786 197.359 123.358 197.502 122.964L193.744 121.595ZM193.759 121.573C193.915 121.484 194.007 121.479 193.93 121.493C193.862 121.505 193.725 121.521 193.48 121.531C192.979 121.552 192.275 121.541 191.216 121.523L191.147 125.522C192.153 125.539 192.998 125.555 193.645 125.528C194.199 125.505 195.027 125.45 195.726 125.056L193.759 121.573ZM191.216 121.523C189.654 121.495 187.834 121.602 185.844 121.953L186.538 125.892C188.256 125.589 189.819 125.499 191.147 125.522L191.216 121.523ZM185.844 121.953C182.571 122.53 179.529 124.191 176.656 125.662C173.687 127.181 170.698 128.621 167.142 129.248L167.836 133.188C172.034 132.447 175.488 130.753 178.478 129.222C181.564 127.643 183.995 126.341 186.538 125.892L185.844 121.953ZM167.142 129.248C162.575 130.054 160.187 129.76 159.168 129.497L158.168 133.37C159.91 133.82 162.909 134.056 167.836 133.188L167.142 129.248ZM158.974 129.457C158.939 129.452 158.964 129.455 159.006 129.465C159.059 129.477 159.12 129.496 159.182 129.521C159.239 129.545 159.274 129.564 159.278 129.566C159.28 129.567 159.262 129.557 159.213 129.525L157.006 132.861C157.182 132.977 157.408 133.118 157.675 133.226C157.978 133.35 158.234 133.39 158.362 133.41L158.974 129.457ZM159.3 129.586C159.315 129.597 159.326 129.606 159.332 129.61C159.338 129.615 159.341 129.618 159.342 129.619C159.342 129.619 159.337 129.614 159.325 129.604C159.302 129.582 159.271 129.55 159.238 129.515C159.222 129.497 159.207 129.481 159.194 129.467C159.181 129.452 159.172 129.441 159.167 129.434C159.161 129.427 159.163 129.429 159.171 129.439C159.175 129.445 159.182 129.456 159.191 129.47C159.2 129.484 159.214 129.506 159.231 129.535L155.752 131.509C155.927 131.818 156.177 132.097 156.309 132.24C156.458 132.399 156.684 132.626 156.918 132.799L159.3 129.586ZM159.216 129.51C159.205 129.491 159.207 129.493 159.215 129.511C159.224 129.531 159.232 129.552 159.237 129.569C159.241 129.582 159.239 129.58 159.232 129.545C159.228 129.527 159.224 129.505 159.218 129.473C159.213 129.441 159.206 129.406 159.198 129.362L155.259 130.056C155.327 130.438 155.403 130.916 155.766 131.534L159.216 129.51ZM159.198 129.362L155.524 108.522L151.585 109.217L155.259 130.056L159.198 129.362ZM155.524 108.522C155.363 107.611 155.262 107.031 155.216 106.61C155.166 106.144 155.227 106.191 155.156 106.392L151.387 105.051C151.134 105.764 151.181 106.502 151.24 107.042C151.303 107.626 151.434 108.364 151.585 109.217L155.524 108.522ZM155.151 106.406C155.162 106.376 155.17 106.356 155.175 106.344C155.18 106.332 155.182 106.329 155.18 106.333C155.178 106.337 155.173 106.346 155.163 106.36C155.153 106.375 155.141 106.391 155.127 106.407C155.113 106.424 155.099 106.438 155.086 106.45C155.074 106.462 155.065 106.469 155.061 106.472C155.057 106.475 155.06 106.473 155.07 106.466C155.081 106.46 155.098 106.449 155.126 106.433L153.178 102.94C152.814 103.143 152.425 103.411 152.082 103.813C151.74 104.215 151.536 104.643 151.392 105.037L155.151 106.406ZM155.135 106.428C154.979 106.516 154.887 106.521 154.964 106.508C155.033 106.495 155.169 106.479 155.415 106.469C155.916 106.448 156.619 106.46 157.678 106.478L157.747 102.479C156.741 102.461 155.896 102.446 155.249 102.473C154.695 102.496 153.867 102.551 153.169 102.945L155.135 106.428ZM157.678 106.478C159.24 106.505 161.06 106.399 163.051 106.048L162.356 102.108C160.639 102.411 159.076 102.502 157.747 102.479L157.678 106.478ZM163.051 106.048C166.323 105.471 169.366 103.809 172.239 102.339C175.207 100.82 178.197 99.3795 181.753 98.7525L181.058 94.8133C176.86 95.5535 173.406 97.2481 170.416 98.7783C167.331 100.357 164.9 101.66 162.356 102.108L163.051 106.048ZM183.375 96.4356L183.375 96.4356L179.436 97.1302L179.436 97.1302L183.375 96.4356ZM177.324 113.493C177.604 115.081 176.543 116.597 174.954 116.877L175.649 120.816C179.414 120.152 181.927 116.561 181.263 112.798L177.324 113.493ZM174.954 116.877C173.366 117.157 171.85 116.095 171.57 114.508L167.631 115.202C168.295 118.965 171.884 121.48 175.649 120.816L174.954 116.877ZM171.57 114.508C171.29 112.92 172.352 111.404 173.94 111.124L173.245 107.184C169.481 107.848 166.968 111.439 167.631 115.202L171.57 114.508ZM173.94 111.124C175.528 110.843 177.044 111.905 177.324 113.493L181.263 112.798C180.6 109.036 177.01 106.52 173.245 107.184L173.94 111.124Z" fill="white"/>
<path fill-rule="evenodd" clip-rule="evenodd" d="M179.148 53.1849L180.515 60.9393L179.148 53.1849ZM201.727 45.2061L203.094 52.9602L201.727 45.2061ZM198.079 35.8551C202.826 35.0181 205.52 35.2826 206.9 35.639C207.081 35.6669 207.172 35.6909 207.459 35.8801C207.633 36.0094 207.974 36.3691 208.077 36.5507C208.247 36.8406 208.278 37.0151 208.339 37.364L212.014 58.2034C212.325 59.9674 212.479 60.84 212.297 61.3518C212.11 61.8644 211.888 62.1231 211.416 62.3864C210.953 62.6481 209.92 62.6301 207.856 62.5945C206.41 62.5694 204.719 62.6679 202.865 62.9948C197.049 64.0203 191.917 68.9229 184.163 70.2902C179.416 71.1272 176.722 70.8625 175.342 70.5061C175.162 70.4782 175.07 70.4545 174.783 70.265C174.609 70.1357 174.268 69.7762 174.165 69.5944C173.995 69.3046 173.964 69.1302 173.903 68.7811L170.228 47.9417C169.917 46.1779 169.763 45.3054 169.945 44.7936C170.132 44.281 170.354 44.022 170.826 43.7587C171.289 43.497 172.322 43.5151 174.386 43.5506C175.832 43.5757 177.523 43.4772 179.377 43.1503C185.193 42.1248 190.325 37.2224 198.079 35.8551L198.079 35.8551ZM195.967 52.218C196.439 54.8933 194.652 57.447 191.976 57.9189C189.299 58.3909 186.746 56.6024 186.275 53.9271C185.803 51.2518 187.59 48.6981 190.266 48.2262C192.943 47.7542 195.496 49.5427 195.967 52.218Z" fill="white"/>
<path d="M181.117 52.8376C180.926 51.7498 179.888 51.0234 178.801 51.2152C177.713 51.4071 176.986 52.4444 177.178 53.5322L181.117 52.8376ZM178.546 61.2866C178.737 62.3743 179.775 63.1007 180.862 62.9089C181.95 62.7171 182.677 61.6798 182.485 60.592L178.546 61.2866ZM203.696 44.8588C203.505 43.771 202.467 43.0447 201.38 43.2365C200.292 43.4283 199.565 44.4656 199.757 45.5534L203.696 44.8588ZM201.125 53.3075C201.316 54.3953 202.354 55.1217 203.441 54.9299C204.529 54.738 205.256 53.7007 205.064 52.6129L201.125 53.3075ZM198.079 35.8551L197.732 33.8855C196.644 34.0773 195.918 35.1146 196.11 36.2024L198.079 35.8551ZM206.9 35.639L206.4 37.5755C206.464 37.592 206.529 37.6053 206.594 37.6154L206.9 35.639ZM207.459 35.8801L208.65 34.2734C208.621 34.2519 208.591 34.2312 208.561 34.2113L207.459 35.8801ZM208.077 36.5507L206.338 37.5387C206.343 37.5468 206.347 37.5548 206.352 37.5628L208.077 36.5507ZM212.297 61.3518L214.176 62.0361C214.178 62.0316 214.179 62.027 214.181 62.0225L212.297 61.3518ZM211.416 62.3864L210.442 60.6394L210.433 60.6448L211.416 62.3864ZM207.856 62.5945L207.821 64.5942L207.821 64.5942L207.856 62.5945ZM175.342 70.5061L175.842 68.5696C175.778 68.5531 175.713 68.5398 175.648 68.5297L175.342 70.5061ZM174.783 70.265L173.592 71.8718C173.621 71.893 173.65 71.9135 173.68 71.9332L174.783 70.265ZM174.165 69.5944L175.904 68.6072C175.9 68.5988 175.895 68.5905 175.89 68.5823L174.165 69.5944ZM169.945 44.7936L168.066 44.1093C168.064 44.1138 168.063 44.1183 168.061 44.1229L169.945 44.7936ZM170.826 43.7587L171.8 45.5057L171.809 45.5003L170.826 43.7587ZM174.386 43.5506L174.421 41.5509L174.421 41.5509L174.386 43.5506ZM198.079 35.8551L198.427 37.8248C199.514 37.633 200.241 36.5956 200.049 35.5079L198.079 35.8551ZM177.178 53.5322L178.546 61.2866L182.485 60.592L181.117 52.8376L177.178 53.5322ZM199.757 45.5534L201.125 53.3075L205.064 52.6129L203.696 44.8588L199.757 45.5534ZM198.427 37.8248C202.993 37.0195 205.382 37.3125 206.4 37.5755L207.4 33.7025C205.659 33.2528 202.659 33.0167 197.732 33.8855L198.427 37.8248ZM206.594 37.6154C206.629 37.6208 206.604 37.6178 206.561 37.6078C206.508 37.5952 206.447 37.5765 206.385 37.5513C206.329 37.5283 206.295 37.5091 206.291 37.5068C206.289 37.5058 206.307 37.5162 206.357 37.5488L208.561 34.2113C208.386 34.0953 208.16 33.9552 207.894 33.8468C207.591 33.7233 207.336 33.6826 207.206 33.6625L206.594 37.6154ZM206.268 37.4867C206.253 37.4755 206.242 37.467 206.236 37.4623C206.23 37.4574 206.227 37.4546 206.226 37.4542C206.226 37.4537 206.231 37.4585 206.243 37.4691C206.266 37.491 206.297 37.5225 206.33 37.5581C206.346 37.5753 206.361 37.5916 206.374 37.6063C206.387 37.6211 206.396 37.6321 206.401 37.6389C206.407 37.6464 206.406 37.6445 206.398 37.6338C206.394 37.6281 206.387 37.6178 206.377 37.6034C206.368 37.5894 206.354 37.5675 206.338 37.5387L209.816 35.5628C209.641 35.255 209.391 34.9759 209.259 34.8335C209.111 34.6739 208.884 34.4469 208.65 34.2734L206.268 37.4867ZM206.352 37.5628C206.363 37.582 206.361 37.5798 206.353 37.562C206.344 37.5422 206.337 37.5209 206.332 37.5042C206.328 37.4911 206.329 37.4934 206.336 37.5282C206.34 37.5456 206.344 37.5681 206.35 37.5995C206.356 37.6315 206.362 37.6664 206.37 37.7113L210.309 37.0167C210.242 36.6348 210.165 36.1568 209.802 35.5386L206.352 37.5628ZM206.37 37.7113L210.044 58.5507L213.984 57.8561L210.309 37.0167L206.37 37.7113ZM210.044 58.5507C210.205 59.4615 210.306 60.0425 210.352 60.463C210.403 60.9287 210.341 60.8823 210.412 60.6811L214.181 62.0225C214.435 61.3094 214.387 60.5709 214.329 60.0313C214.265 59.4466 214.134 58.7093 213.984 57.8561L210.044 58.5507ZM210.417 60.6675C210.406 60.6975 210.398 60.7173 210.393 60.7293C210.388 60.7411 210.386 60.744 210.388 60.7402C210.39 60.7363 210.396 60.7263 210.405 60.7123C210.415 60.698 210.427 60.682 210.441 60.6654C210.455 60.6487 210.469 60.6342 210.482 60.6223C210.495 60.6106 210.504 60.6032 210.508 60.6003C210.511 60.5975 210.509 60.5995 210.498 60.6063C210.488 60.6131 210.47 60.6241 210.442 60.6395L212.39 64.1333C212.754 63.9305 213.143 63.6617 213.486 63.2598C213.828 62.8581 214.032 62.4303 214.176 62.0361L210.417 60.6675ZM210.433 60.6448C210.589 60.5567 210.681 60.5515 210.604 60.5652C210.536 60.5774 210.399 60.5935 210.154 60.6036C209.652 60.6244 208.949 60.613 207.89 60.5948L207.821 64.5942C208.827 64.6115 209.672 64.627 210.319 64.6002C210.873 64.5773 211.701 64.5224 212.399 64.128L210.433 60.6448ZM207.89 60.5948C206.328 60.5677 204.508 60.6742 202.517 61.0252L203.212 64.9644C204.93 64.6616 206.492 64.5712 207.821 64.5942L207.89 60.5948ZM202.517 61.0252C199.245 61.6022 196.202 63.2637 193.33 64.734C190.361 66.2533 187.372 67.6936 183.816 68.3206L184.51 72.2598C188.708 71.5196 192.162 69.8249 195.152 68.2947C198.238 66.7155 200.669 65.4129 203.212 64.9644L202.517 61.0252ZM183.816 68.3206C179.249 69.1258 176.861 68.8327 175.842 68.5696L174.842 72.4426C176.583 72.8923 179.583 73.1287 184.51 72.2598L183.816 68.3206ZM175.648 68.5297C175.613 68.5243 175.638 68.5272 175.68 68.5372C175.733 68.5497 175.794 68.5684 175.856 68.5937C175.913 68.6168 175.948 68.6362 175.952 68.6386C175.954 68.6397 175.936 68.6295 175.886 68.5969L173.68 71.9332C173.856 72.0496 174.082 72.19 174.348 72.2987C174.652 72.4222 174.908 72.4627 175.036 72.4826L175.648 68.5297ZM175.974 68.6583C175.989 68.6695 176 68.678 176.006 68.6827C176.012 68.6876 176.015 68.6904 176.016 68.6908C176.016 68.6912 176.01 68.6864 175.999 68.6758C175.976 68.6539 175.945 68.6225 175.911 68.5869C175.895 68.5698 175.881 68.5535 175.868 68.5389C175.855 68.5241 175.846 68.5132 175.841 68.5064C175.835 68.499 175.837 68.501 175.844 68.5118C175.849 68.5175 175.856 68.5278 175.865 68.5423C175.874 68.5564 175.888 68.5783 175.904 68.6072L172.426 70.5816C172.601 70.89 172.851 71.1695 172.983 71.3119C173.132 71.4716 173.358 71.6984 173.592 71.8718L175.974 68.6583ZM175.89 68.5823C175.879 68.563 175.881 68.5652 175.889 68.583C175.898 68.6029 175.905 68.6242 175.91 68.641C175.914 68.6541 175.913 68.6518 175.906 68.6171C175.902 68.5996 175.898 68.5771 175.892 68.5457C175.886 68.5137 175.88 68.4787 175.872 68.4338L171.933 69.1284C172 69.5106 172.077 69.9884 172.44 70.6065L175.89 68.5823ZM175.872 68.4338L172.198 47.5944L168.258 48.289L171.933 69.1284L175.872 68.4338ZM172.198 47.5944C172.037 46.6837 171.936 46.1028 171.89 45.6823C171.84 45.2167 171.901 45.263 171.83 45.4643L168.061 44.1229C167.807 44.8359 167.855 45.5744 167.913 46.114C167.977 46.6986 168.108 47.4359 168.258 48.289L172.198 47.5944ZM171.825 45.4779C171.836 45.4478 171.844 45.4279 171.849 45.416C171.854 45.4041 171.856 45.4012 171.854 45.4049C171.852 45.4088 171.846 45.4187 171.837 45.4327C171.827 45.4469 171.815 45.4629 171.801 45.4796C171.787 45.4962 171.773 45.5107 171.76 45.5226C171.748 45.5344 171.739 45.5417 171.735 45.5447C171.731 45.5475 171.733 45.5455 171.744 45.5388C171.754 45.5319 171.772 45.521 171.8 45.5057L169.852 42.0118C169.488 42.2148 169.099 42.4837 168.756 42.8857C168.414 43.2875 168.21 43.7153 168.066 44.1093L171.825 45.4779ZM171.809 45.5003C171.653 45.5885 171.561 45.5936 171.638 45.5799C171.706 45.5677 171.843 45.5516 172.089 45.5415C172.59 45.5207 173.293 45.5321 174.352 45.5503L174.421 41.5509C173.415 41.5336 172.57 41.5181 171.923 41.5449C171.369 41.5678 170.541 41.6228 169.843 42.0171L171.809 45.5003ZM174.352 45.5503C175.914 45.5774 177.734 45.471 179.725 45.1199L179.03 41.1807C177.312 41.4835 175.75 41.574 174.421 41.5509L174.352 45.5503ZM179.725 45.1199C182.997 44.5429 186.04 42.8815 188.912 41.4113C191.881 39.8921 194.87 38.4518 198.427 37.8248L197.732 33.8855C193.534 34.6258 190.08 36.3204 187.09 37.8505C184.005 39.4297 181.573 40.7322 179.03 41.1807L179.725 45.1199ZM200.049 35.5079L200.049 35.5078L196.11 36.2024L196.11 36.2024L200.049 35.5079ZM193.998 52.5653C194.278 54.1531 193.217 55.6692 191.628 55.9493L192.323 59.8885C196.088 59.2247 198.6 55.6334 197.937 51.8707L193.998 52.5653ZM191.628 55.9493C190.04 56.2294 188.524 55.1676 188.244 53.5798L184.305 54.2744C184.968 58.0371 188.558 60.5524 192.323 59.8885L191.628 55.9493ZM188.244 53.5798C187.964 51.992 189.025 50.4759 190.614 50.1958L189.919 46.2566C186.154 46.9204 183.642 50.5117 184.305 54.2744L188.244 53.5798ZM190.614 50.1958C192.202 49.9157 193.718 50.9775 193.998 52.5653L197.937 51.8707C197.274 48.108 193.684 45.5927 189.919 46.2566L190.614 50.1958Z" fill="#32D583"/>
<path fill-rule="evenodd" clip-rule="evenodd" d="M17.3649 19.6962C19.283 8.81827 29.6562 1.5549 40.534 3.47296L119.319 17.3648C130.197 19.2829 137.46 29.6561 135.542 40.5339L121.65 119.319C119.732 130.196 109.359 137.46 98.4809 135.542L19.6963 121.65C8.81838 119.732 1.55501 109.359 3.47307 98.4808L17.3649 19.6962Z" fill="#F6F6F6"/>
<path d="M57.6573 75.8001C57.8492 74.7123 57.1228 73.675 56.035 73.4831C54.9472 73.2913 53.9099 74.0177 53.7181 75.1055L57.6573 75.8001ZM81.4525 62.9368C81.2607 64.0246 81.9871 65.0619 83.0748 65.2537C84.1626 65.4455 85.1999 64.7192 85.3918 63.6314L81.4525 62.9368ZM75.1712 49.0348C75.363 47.947 74.6367 46.9097 73.5489 46.7179C72.4611 46.5261 71.4238 47.2524 71.232 48.3402L75.1712 49.0348ZM63.9387 89.7021C63.7469 90.7899 64.4733 91.8272 65.5611 92.019C66.6489 92.2108 67.6862 91.4845 67.878 90.3967L63.9387 89.7021ZM53.7181 75.1055C52.7203 80.7641 56.4982 86.1563 62.1542 87.1536L62.8488 83.2143C59.3678 82.6005 57.0433 79.2826 57.6573 75.8001L53.7181 75.1055ZM62.1542 87.1536L70.4265 88.6122L71.1211 84.673L62.8488 83.2143L62.1542 87.1536ZM70.4265 88.6122C76.0825 89.6095 81.4767 85.8347 82.4745 80.176L78.5353 79.4814C77.9212 82.9639 74.6021 85.2868 71.1211 84.673L70.4265 88.6122ZM82.4745 80.176C83.4722 74.5175 79.6944 69.1254 74.0384 68.1281L73.3438 72.0674C76.8248 72.6812 79.1493 75.9991 78.5353 79.4814L82.4745 80.176ZM74.0384 68.1281L65.7661 66.6695L65.0715 70.6087L73.3438 72.0674L74.0384 68.1281ZM65.7661 66.6695C62.2851 66.0557 59.9606 62.7377 60.5746 59.2555L56.6354 58.5609C55.6376 64.2194 59.4156 69.6115 65.0715 70.6087L65.7661 66.6695ZM60.5746 59.2555C61.1887 55.773 64.5078 53.4501 67.9888 54.0639L68.6834 50.1247C63.0274 49.1274 57.6331 52.9022 56.6354 58.5609L60.5746 59.2555ZM67.9888 54.0639L76.2611 55.5226L76.9557 51.5833L68.6834 50.1247L67.9888 54.0639ZM76.2611 55.5226C79.7421 56.1364 82.0666 59.4543 81.4525 62.9368L85.3918 63.6314C86.3895 57.9727 82.6117 52.5806 76.9557 51.5833L76.2611 55.5226ZM71.232 48.3402L63.9387 89.7021L67.878 90.3967L75.1712 49.0348L71.232 48.3402Z" fill="#0FB76A"/>
</svg>
