<svg width="262" height="192" viewBox="0 0 262 192" fill="none" xmlns="http://www.w3.org/2000/svg">
<path fill-rule="evenodd" clip-rule="evenodd" d="M36.3649 59.6962C38.283 48.8183 48.6562 41.5549 59.534 43.473L138.319 57.3648C149.197 59.2829 156.46 69.6561 154.542 80.5339L140.65 159.319C138.732 170.196 128.359 177.46 117.481 175.542L38.6963 161.65C27.8184 159.732 20.555 149.359 22.4731 138.481L36.3649 59.6962Z" fill="#F6F6F6"/>
<path d="M88.1955 92.9374C89.2861 93.1081 90.3637 92.3717 90.6022 91.2926C90.8408 90.2134 90.1501 89.2002 89.0594 89.0295L88.1955 92.9374ZM82.3357 89.9986L82.7677 88.0447L82.3357 89.9986ZM75.9842 89.7024L75.4162 87.8396L75.4147 87.8401L75.9842 89.7024ZM72.8677 92.0118L71.2543 90.9142L71.2531 90.9159L72.8677 92.0118ZM70.925 98.4549L72.9087 98.7219L70.925 98.4549ZM67.4721 115.838L65.4885 115.571L67.4721 115.838ZM66.8153 122.483L64.8566 123.083L64.8571 123.085L66.8153 122.483ZM68.8541 125.599L67.5416 127.176L67.5428 127.177L68.8541 125.599ZM74.9367 127.249L74.5047 129.203L74.9367 127.249ZM91.4525 129.834L91.8845 127.88L91.4525 129.834ZM97.8039 130.13L98.372 131.993L98.3736 131.993L97.8039 130.13ZM100.92 127.821L102.534 128.919L102.535 128.917L100.92 127.821ZM102.863 121.378L104.847 121.645L102.863 121.378ZM106.162 115.023C106.377 113.94 105.663 112.943 104.568 112.796C103.472 112.648 102.41 113.406 102.195 114.489L106.162 115.023ZM88.9703 99.879C87.8796 99.7082 86.8021 100.445 86.5635 101.524C86.3249 102.603 87.0157 103.616 88.1063 103.787L88.9703 99.879ZM96.403 103.064L98.3866 103.331C98.5984 102.265 97.909 101.278 96.835 101.11L96.403 103.064ZM92.7751 111.075C92.5601 112.157 93.2739 113.154 94.3694 113.302C95.4649 113.449 96.5274 112.691 96.7424 111.609L92.7751 111.075ZM95.0109 93.7528C94.8002 94.836 95.5181 95.8301 96.6144 95.9733C97.7108 96.1165 98.7705 95.3546 98.9812 94.2714L95.0109 93.7528ZM99.5761 91.2141C99.7869 90.1309 99.069 89.1368 97.9726 88.9936C96.8762 88.8504 95.8166 89.6123 95.6058 90.6955L99.5761 91.2141ZM103.419 96.0339C102.504 96.7116 102.282 97.9558 102.922 98.8127C103.562 99.6696 104.823 99.8148 105.738 99.137L103.419 96.0339ZM108.26 97.2679C109.174 96.5901 109.397 95.346 108.757 94.4891C108.116 93.6322 106.856 93.487 105.941 94.1647L108.26 97.2679ZM105.806 103.923C104.716 103.749 103.637 104.483 103.395 105.562C103.154 106.641 103.842 107.656 104.933 107.829L105.806 103.923ZM107.934 108.306C109.024 108.479 110.103 107.745 110.344 106.667C110.585 105.588 109.897 104.573 108.807 104.4L107.934 108.306ZM68.9852 108.065C67.9484 107.72 66.7722 108.28 66.3581 109.317C65.944 110.353 66.4488 111.473 67.4856 111.819L68.9852 108.065ZM72.1605 110.895L71.7261 112.849L72.1605 110.895ZM97.0656 103.911C97.8544 103.094 97.8534 101.844 97.0633 101.119C96.2732 100.393 94.9933 100.467 94.2045 101.284L97.0656 103.911ZM89.0594 89.0295L82.7677 88.0447L81.9037 91.9526L88.1955 92.9374L89.0594 89.0295ZM82.7677 88.0447C81.1508 87.7916 79.8122 87.5803 78.7046 87.5035C77.5709 87.4249 76.4941 87.4697 75.4162 87.8396L76.5522 91.5653C76.8711 91.4558 77.3185 91.3902 78.1855 91.4503C79.0787 91.5122 80.2174 91.6886 81.9037 91.9526L82.7677 88.0447ZM75.4147 87.8401C73.7553 88.4111 72.3038 89.496 71.2543 90.9142L74.4811 93.1094C75.0278 92.3707 75.7586 91.8383 76.5538 91.5647L75.4147 87.8401ZM71.2531 90.9159C70.5819 91.8247 70.1844 92.8399 69.8675 93.9731C69.5558 95.0877 69.2806 96.4802 68.9414 98.188L72.9087 98.7219C73.2601 96.9528 73.5028 95.7377 73.7631 94.807C74.0182 93.8949 74.2467 93.4269 74.4824 93.1077L71.2531 90.9159ZM68.9414 98.188L65.4885 115.571L69.4558 116.105L72.9087 98.7219L68.9414 98.188ZM65.4885 115.571C65.1493 117.279 64.8714 118.671 64.735 119.812C64.596 120.975 64.5801 122.04 64.8566 123.083L68.774 121.882C68.6715 121.496 68.6387 120.977 68.7503 120.044C68.8644 119.09 69.1045 117.874 69.4558 116.105L65.4885 115.571ZM64.8571 123.085C65.2911 124.715 66.2228 126.152 67.5416 127.176L70.1666 124.022C69.5042 123.507 69.0083 122.762 68.7735 121.88L64.8571 123.085ZM67.5428 127.177C68.3984 127.84 69.3822 128.207 70.479 128.478C71.5486 128.742 72.8874 128.95 74.5047 129.203L75.3686 125.295C73.6827 125.031 72.5441 124.851 71.6802 124.638C70.8435 124.432 70.4376 124.232 70.1653 124.021L67.5428 127.177ZM74.5047 129.203L91.0205 131.788L91.8845 127.88L75.3686 125.295L74.5047 129.203ZM91.0205 131.788C92.6374 132.041 93.9759 132.253 95.0835 132.329C96.2173 132.408 97.2941 132.363 98.372 131.993L97.2359 128.268C96.917 128.377 96.4697 128.443 95.6027 128.383C94.7095 128.321 93.5708 128.144 91.8845 127.88L91.0205 131.788ZM98.3736 131.993C100.033 131.422 101.484 130.337 102.534 128.919L99.307 126.724C98.7604 127.462 98.0296 127.994 97.2343 128.268L98.3736 131.993ZM102.535 128.917C103.206 128.008 103.604 126.993 103.921 125.86C104.232 124.745 104.508 123.353 104.847 121.645L100.88 121.111C100.528 122.88 100.285 124.095 100.025 125.026C99.77 125.938 99.5415 126.406 99.3058 126.725L102.535 128.917ZM104.847 121.645L106.162 115.023L102.195 114.489L100.88 121.111L104.847 121.645ZM88.1063 103.787L95.971 105.018L96.835 101.11L88.9703 99.879L88.1063 103.787ZM94.4193 102.797L92.7751 111.075L96.7424 111.609L98.3866 103.331L94.4193 102.797ZM98.9812 94.2714L99.5761 91.2141L95.6058 90.6955L95.0109 93.7528L98.9812 94.2714ZM105.738 99.137L108.26 97.2679L105.941 94.1647L103.419 96.0339L105.738 99.137ZM104.933 107.829L107.934 108.306L108.807 104.4L105.806 103.923L104.933 107.829ZM67.4856 111.819C68.846 112.272 70.2621 112.618 71.7261 112.849L72.595 108.942C71.3465 108.745 70.1413 108.45 68.9852 108.065L67.4856 111.819ZM71.7261 112.849C81.2039 114.344 90.5353 110.675 97.0656 103.911L94.2045 101.284C88.5656 107.125 80.6125 110.207 72.595 108.942L71.7261 112.849Z" fill="#3A3A3A"/>
<path fill-rule="evenodd" clip-rule="evenodd" d="M125.473 40.534C123.555 29.6562 130.818 19.283 141.696 17.3649L220.481 3.47307C231.359 1.55501 241.732 8.81838 243.65 19.6963L257.542 98.4809C259.46 109.359 252.196 119.732 241.319 121.65L162.534 135.542C151.656 137.46 141.283 130.197 139.365 119.319L125.473 40.534Z" fill="#F97066"/>
<path d="M194.489 76.8538C194.286 75.7696 193.232 75.0002 192.134 75.1352C191.036 75.2702 190.31 76.2586 190.513 77.3428L194.489 76.8538ZM192.265 86.7252C192.467 87.8094 193.522 88.5788 194.619 88.4438C195.717 88.3088 196.443 87.3204 196.241 86.2362L192.265 86.7252ZM204.366 86.5945C205.333 87.1952 206.569 86.9424 207.128 86.0298C207.686 85.1172 207.355 83.8904 206.388 83.2897L204.366 86.5945ZM196.793 79.6085L197.804 77.9561L197.803 77.9555L196.793 79.6085ZM193.62 78.0236L193.786 76.0649L193.783 76.0645L193.62 78.0236ZM191.589 78.3456L190.6 76.5663L190.598 76.5676L191.589 78.3456ZM189.21 80.81L187.584 79.5439L187.584 79.5447L189.21 80.81ZM181.547 87.195C180.884 88.0348 181.075 89.2822 181.974 89.981C182.872 90.6798 184.138 90.5654 184.801 89.7256L181.547 87.195ZM185.351 68.7998C185.137 67.7171 184.076 66.9575 182.98 67.1033C181.884 67.2492 181.169 68.2452 181.382 69.328L185.351 68.7998ZM181.756 71.2243C181.969 72.3071 183.031 73.0666 184.127 72.9208C185.223 72.775 185.938 71.779 185.724 70.6962L181.756 71.2243ZM192.178 63.7493C191.971 62.6656 190.915 61.8996 189.818 62.0384C188.72 62.1772 187.998 63.1683 188.204 64.252L192.178 63.7493ZM189.278 69.8918C189.484 70.9756 190.541 71.7416 191.638 71.6028C192.736 71.4639 193.458 70.4729 193.251 69.3892L189.278 69.8918ZM199.004 58.6939C198.801 57.6097 197.747 56.8402 196.649 56.9752C195.551 57.1103 194.825 58.0986 195.028 59.1828L199.004 58.6939ZM196.78 68.5653C196.983 69.6494 198.037 70.4189 199.135 70.2839C200.233 70.1488 200.959 69.1605 200.756 68.0763L196.78 68.5653ZM207.353 51.45C208.44 51.2627 209.114 50.2383 208.859 49.1619C208.603 48.0855 207.515 47.3648 206.428 47.5521L207.353 51.45ZM169.038 53.9953C167.951 54.1826 167.277 55.207 167.532 56.2834C167.788 57.3598 168.876 58.0806 169.962 57.8933L169.038 53.9953ZM171.371 54.9985L170.939 53.0446C169.865 53.2128 169.176 54.1993 169.388 55.2652L171.371 54.9985ZM204.36 49.8309L206.344 49.5643C206.239 49.037 205.924 48.5608 205.469 48.2433C205.015 47.9259 204.459 47.7938 203.928 47.877L204.36 49.8309ZM207.502 65.6607L209.486 65.3941L207.502 65.6607ZM208.114 71.8587L210.072 72.4606L210.073 72.4587L208.114 71.8587ZM206.214 74.7658L207.525 76.3437L207.527 76.3424L206.214 74.7658ZM200.544 76.3049L200.112 74.3509L200.544 76.3049ZM185.149 78.7164L185.581 80.6704L185.149 78.7164ZM179.229 78.9929L178.659 80.855L178.661 80.8557L179.229 78.9929ZM176.324 76.8385L174.709 77.9339L174.71 77.9351L176.324 76.8385ZM174.513 70.8283L176.497 70.5616L174.513 70.8283ZM190.513 77.3428L192.265 86.7252L196.241 86.2362L194.489 76.8538L190.513 77.3428ZM206.388 83.2897L197.804 77.9561L195.782 81.261L204.366 86.5945L206.388 83.2897ZM197.803 77.9555C197.038 77.4811 196.365 77.0618 195.782 76.7564C195.178 76.4395 194.528 76.1671 193.786 76.0649L193.454 79.9824C193.508 79.9898 193.653 80.0184 194.04 80.2208C194.448 80.4347 194.964 80.7531 195.783 81.2615L197.803 77.9555ZM193.783 76.0645C192.673 75.9133 191.57 76.0908 190.6 76.5663L192.577 80.1249C192.857 79.9876 193.16 79.9423 193.457 79.9828L193.783 76.0645ZM190.598 76.5676C189.954 76.8842 189.46 77.3285 189.019 77.8047C188.592 78.2658 188.123 78.8613 187.584 79.5439L190.837 82.076C191.412 81.3482 191.779 80.8854 192.086 80.5538C192.379 80.2373 192.516 80.1546 192.579 80.1236L190.598 76.5676ZM187.584 79.5447L181.547 87.195L184.801 89.7256L190.837 82.0753L187.584 79.5447ZM181.382 69.328L181.756 71.2243L185.724 70.6962L185.351 68.7998L181.382 69.328ZM188.204 64.252L189.278 69.8918L193.251 69.3892L192.178 63.7493L188.204 64.252ZM195.028 59.1828L196.78 68.5653L200.756 68.0763L199.004 58.6939L195.028 59.1828ZM206.428 47.5521L169.038 53.9953L169.962 57.8933L207.353 51.45L206.428 47.5521ZM171.804 56.9525L204.792 51.7849L203.928 47.877L170.939 53.0446L171.804 56.9525ZM202.376 50.0976L205.518 65.9274L209.486 65.3941L206.344 49.5643L202.376 50.0976ZM205.518 65.9274C205.846 67.5793 206.069 68.7076 206.174 69.5916C206.277 70.4545 206.245 70.9197 206.155 71.2586L210.073 72.4587C210.336 71.4644 210.32 70.4521 210.189 69.3602C210.062 68.2893 209.801 66.9853 209.486 65.3941L205.518 65.9274ZM206.156 71.2567C205.943 72.0545 205.496 72.7265 204.901 73.1893L207.527 76.3424C208.778 75.3694 209.661 74.0057 210.072 72.4606L206.156 71.2567ZM204.902 73.188C204.668 73.3696 204.309 73.55 203.538 73.7403C202.74 73.9375 201.686 74.1044 200.112 74.3509L200.976 78.2588C202.481 78.023 203.736 77.8282 204.74 77.5803C205.771 77.3257 206.708 76.9777 207.525 76.3437L204.902 73.188ZM200.112 74.3509L184.717 76.7625L185.581 80.6704L200.976 78.2588L200.112 74.3509ZM184.717 76.7625C183.143 77.0091 182.088 77.1725 181.263 77.2298C180.464 77.2852 180.069 77.2233 179.797 77.1301L178.661 80.8557C179.691 81.2095 180.717 81.2505 181.783 81.1765C182.822 81.1044 184.077 80.9061 185.581 80.6704L184.717 76.7625ZM179.799 77.1308C179.087 76.8856 178.431 76.4079 177.938 75.7418L174.71 77.9351C175.705 79.2813 177.083 80.3122 178.659 80.855L179.799 77.1308ZM177.939 75.743C177.734 75.4651 177.527 75.0469 177.291 74.2034C177.05 73.3414 176.825 72.2138 176.497 70.5616L172.529 71.095C172.845 72.6859 173.103 73.9907 173.395 75.0366C173.693 76.101 174.069 77.0664 174.709 77.9339L177.939 75.743ZM176.497 70.5616L173.355 54.7319L169.388 55.2652L172.529 71.095L176.497 70.5616Z" fill="#7CD4FD"/>
<path fill-rule="evenodd" clip-rule="evenodd" d="M123 32C123 20.9543 131.954 12 143 12H223C234.046 12 243 20.9543 243 32V112C243 123.046 234.046 132 223 132H143C131.954 132 123 123.046 123 112V32Z" fill="#F6F6F6"/>
<path fill-rule="evenodd" clip-rule="evenodd" d="M194.456 74.3714C195.066 74.3714 195.37 74.3714 195.618 74.5057C195.821 74.6179 196.012 74.8292 196.103 75.0427C196.213 75.3025 196.184 75.5776 196.129 76.1301C195.843 78.9914 194.857 81.7472 193.25 84.1552C191.315 87.0496 188.564 89.3079 185.346 90.6395C182.13 91.9733 178.589 92.3211 175.173 91.6409C171.757 90.9631 168.62 89.2858 166.157 86.8228C163.694 84.3598 162.017 81.2234 161.339 77.8073C160.659 74.3912 161.007 70.8497 162.341 67.634C163.672 64.416 165.931 61.6647 168.825 59.73C171.233 58.1232 173.988 57.1371 176.85 56.851C177.402 56.7959 177.678 56.7673 177.937 56.8774C178.151 56.9676 178.362 57.1591 178.472 57.3616C178.608 57.6081 178.608 57.914 178.608 58.5238V72.6106C178.608 73.2268 178.608 73.535 178.73 73.7705C178.833 73.9775 179.003 74.1469 179.21 74.2504C179.445 74.3714 179.753 74.3714 180.369 74.3714L194.456 74.3714Z" stroke="#F97066" stroke-width="4" stroke-linecap="round" stroke-linejoin="round"/>
<path fill-rule="evenodd" clip-rule="evenodd" d="M187.413 49.7195C187.413 49.1098 187.413 48.8039 187.55 48.5574C187.66 48.3548 187.871 48.1634 188.084 48.0731C188.344 47.9631 188.619 47.9917 189.172 48.0467C193.196 48.4496 196.979 50.2302 199.865 53.1158C202.75 56.0014 204.531 59.785 204.934 63.8085C204.989 64.361 205.017 64.6362 204.907 64.8959C204.817 65.1094 204.626 65.3207 204.423 65.4307C204.177 65.5672 203.871 65.5672 203.261 65.5672H189.174C188.558 65.5672 188.25 65.5672 188.014 65.4461C187.807 65.3427 187.638 65.1732 187.534 64.9663C187.413 64.7308 187.413 64.4226 187.413 63.8064V49.7195Z" stroke="#F97066" stroke-width="4" stroke-linecap="round" stroke-linejoin="round"/>
<path fill-rule="evenodd" clip-rule="evenodd" d="M17.3649 71.6962C19.283 60.8183 29.6562 53.5549 40.534 55.473L119.319 69.3648C130.197 71.2829 137.46 81.6561 135.542 92.5339L121.65 171.319C119.732 182.196 109.359 189.46 98.4809 187.542L19.6963 173.65C8.81838 171.732 1.55501 161.359 3.47307 150.481L17.3649 71.6962Z" fill="#F97066"/>
<path d="M82.2428 143.563C83.3334 143.734 84.411 142.998 84.6496 141.918C84.8881 140.839 84.1974 139.826 83.1068 139.655L82.2428 143.563ZM55.3986 137.34L55.8305 135.386L55.3986 137.34ZM51.5975 136.309L50.2854 137.886L50.2863 137.887L51.5975 136.309ZM50.3235 134.361L48.3648 134.962L48.365 134.962L50.3235 134.361ZM50.734 130.209L52.7176 130.476L50.734 130.209ZM58.4202 101.767C58.6352 100.684 57.9214 99.6873 56.8259 99.5398C55.7303 99.3924 54.6679 100.15 54.4529 101.233L58.4202 101.767ZM64.3728 107.807C64.5699 106.722 63.8389 105.737 62.74 105.608C61.6411 105.478 60.5905 106.252 60.3933 107.337L64.3728 107.807ZM56.2574 130.095C56.0603 131.18 56.7913 132.165 57.8902 132.294C58.9891 132.424 60.0397 131.65 60.2369 130.565L56.2574 130.095ZM71.8876 114.995C72.0862 113.911 71.3566 112.925 70.258 112.794C69.1594 112.663 68.1077 113.435 67.9091 114.52L71.8876 114.995ZM64.7822 131.596C64.5835 132.68 65.3131 133.666 66.4118 133.797C67.5104 133.928 68.562 133.155 68.7607 132.071L64.7822 131.596ZM79.3972 122.186C79.5983 121.101 78.8711 120.114 77.773 119.98C76.6748 119.846 75.6215 120.617 75.4204 121.701L79.3972 122.186ZM73.3073 133.094C73.1061 134.178 73.8333 135.166 74.9315 135.3C76.0297 135.433 77.083 134.663 77.2841 133.578L73.3073 133.094ZM86.893 129.381C87.0992 128.297 86.3769 127.306 85.2797 127.167C84.1824 127.028 83.1258 127.795 82.9196 128.878L86.893 129.381ZM81.8332 134.588C81.627 135.671 82.3493 136.662 83.4466 136.801C84.5438 136.94 85.6004 136.174 85.8067 135.09L81.8332 134.588ZM83.1068 139.655L55.8305 135.386L54.9666 139.294L82.2428 143.563L83.1068 139.655ZM55.8305 135.386C54.764 135.219 54.09 135.112 53.5886 134.988C53.1143 134.871 52.9692 134.778 52.9087 134.731L50.2863 137.887C50.9303 138.386 51.6535 138.647 52.3876 138.828C53.0945 139.002 53.9687 139.138 54.9666 139.294L55.8305 135.386ZM52.9096 134.732C52.6186 134.506 52.3909 134.17 52.2821 133.76L48.365 134.962C48.673 136.122 49.3374 137.15 50.2854 137.886L52.9096 134.732ZM52.2822 133.761C52.2508 133.642 52.2212 133.421 52.2858 132.881C52.3529 132.32 52.4958 131.593 52.7176 130.476L48.7503 129.942C48.5406 130.998 48.3599 131.901 48.2704 132.649C48.1785 133.419 48.1594 134.187 48.3648 134.962L52.2822 133.761ZM52.7176 130.476L58.4202 101.767L54.4529 101.233L48.7503 129.942L52.7176 130.476ZM60.3933 107.337L56.2574 130.095L60.2369 130.565L64.3728 107.807L60.3933 107.337ZM67.9091 114.52L64.7822 131.596L68.7607 132.071L71.8876 114.995L67.9091 114.52ZM75.4204 121.701L73.3073 133.094L77.2841 133.578L79.3972 122.186L75.4204 121.701ZM82.9196 128.878L81.8332 134.588L85.8067 135.09L86.893 129.381L82.9196 128.878Z" fill="white"/>
</svg>
