<svg height="179.015" viewBox="0 0 242.015 179.015" width="242.015" xmlns="http://www.w3.org/2000/svg"><rect fill="#f6f6f6" height="120" rx="20" transform="matrix(.985 .174 -.174 .985 20.838 40)" width="120"/><path d="m355.417 600.052h-6.567c-3.448 0-5.171 0-6.489.671a6.173 6.173 0 0 0 -2.69 2.69c-.671 1.318-.671 3.041-.671 6.487v17.237c0 3.447 0 5.171.671 6.489a6.173 6.173 0 0 0 2.69 2.69c1.317.671 3.041.671 6.489.671h17.237c3.447 0 5.171 0 6.489-.671a6.173 6.173 0 0 0 2.69-2.69c.671-1.318.671-3.041.671-6.489v-6.567m-18.469-10.26h8.208v8.208m-1.026-17.442v-3.076m8.083 5.255 2.177-2.177m.021 10.26h3.078m-39.009 9.947a26.72 26.72 0 0 0 25.9-10.972" fill="none" stroke="#0b86df" stroke-linecap="round" stroke-linejoin="round" stroke-width="4" transform="matrix(.985 .174 -.174 .985 -176.738 -561.281)"/><rect fill="#0a86df" height="120" rx="20" transform="matrix(.985 -.174 .174 .985 103 20.838)" width="120"/><path d="m901 343.7v9.5m11.4 0-7.507-6.257a9.014 9.014 0 0 0 -2.85-1.951 3.816 3.816 0 0 0 -2.086 0 9.014 9.014 0 0 0 -2.85 1.951l-7.507 6.257m3.8-19v1.9m7.6-5.7v5.7m7.6-9.5v9.5m11.4-17.1h-38m1.9 0h34.2v15.58c0 3.192 0 4.788-.621 6.008a5.717 5.717 0 0 1 -2.491 2.491c-1.22.621-2.816.621-6.008.621h-15.96c-3.192 0-4.788 0-6.008-.621a5.714 5.714 0 0 1 -2.491-2.491c-.621-1.22-.621-2.816-.621-6.008z" fill="none" stroke="#ffffff" stroke-linecap="round" stroke-linejoin="round" stroke-width="4" transform="matrix(.985 -.174 .174 .985 -773.494 -104.896)"/></svg>