<svg height="179.805" viewBox="0 0 255.805 179.805" width="255.805" xmlns="http://www.w3.org/2000/svg"><rect fill="#f6f6f6" height="120" rx="20" transform="matrix(.93969262 .34202014 -.34202014 .93969262 143.042 26)" width="120"/><path d="m1347.716 329.149v7.716m15.433-11.575v11.575m-7.716-19.291v19.291m15.433-21.606v20.063c0 3.241 0 4.861-.637 6.1a5.663 5.663 0 0 1 -2.527 2.529c-1.234.631-2.855.631-6.1.631h-12.342c-3.241 0-4.861 0-6.1-.631a5.663 5.663 0 0 1 -2.527-2.529c-.636-1.238-.636-2.859-.636-6.1v-20.062c0-3.241 0-4.861.636-6.1a5.663 5.663 0 0 1 2.527-2.529c1.234-.631 2.855-.631 6.1-.631h12.346c3.241 0 4.861 0 6.1.631a5.663 5.663 0 0 1 2.527 2.529c.633 1.24.633 2.859.633 6.1z" fill="none" stroke="#3a3a3a" stroke-linecap="round" stroke-linejoin="round" stroke-width="4" transform="matrix(.93969262 .34202014 -.34202014 .93969262 -983.834 -666.354)"/><rect fill="#e0f2fe" height="120" rx="20" transform="matrix(.985 -.174 .174 .985 0 20.838)" width="120"/><path d="m1352.209 1262.554 2.877 1.6a5.149 5.149 0 0 0 1.135.528 2.612 2.612 0 0 0 .783 0 5.149 5.149 0 0 0 1.135-.528l2.877-1.6m-17.613-4.893-2.8-1.546a4.493 4.493 0 0 1 -1.1-.724 2.553 2.553 0 0 1 -.411-.7 4.487 4.487 0 0 1 -.1-1.311v-3.053m0-9.785v-3.053a4.487 4.487 0 0 1 .1-1.311 2.553 2.553 0 0 1 .411-.7 4.493 4.493 0 0 1 1.1-.724l2.8-1.546m8.806-4.893 2.877-1.6a5.149 5.149 0 0 1 1.135-.528 2.612 2.612 0 0 1 .783 0 5.149 5.149 0 0 1 1.135.528l2.877 1.6m8.806 4.893 2.8 1.546a4.486 4.486 0 0 1 1.1.724 2.554 2.554 0 0 1 .411.7 4.5 4.5 0 0 1 .1 1.311v3.053m0 9.785v3.053a4.5 4.5 0 0 1 -.1 1.311 2.554 2.554 0 0 1 -.411.7 4.486 4.486 0 0 1 -1.1.724l-2.8 1.546m-17.613-14.677 4.4 2.446m0 0 4.4-2.446m-4.4 2.446v4.892m-17.609-14.676 4.4 2.446m26.419 0 4.4-2.446m-17.613 24.462v4.892" fill="none" stroke="#0b86df" stroke-linecap="round" stroke-linejoin="round" stroke-width="4" transform="matrix(.985 -.174 .174 .985 -1483.075 -922.385)"/></svg>