<svg xmlns="http://www.w3.org/2000/svg" width="18" height="22" viewBox="0 0 18 22">
  <path id="Path_19263" data-name="Path 19263" d="M2164,1932l-4.27-3.56a5.9,5.9,0,0,1-1.18-1.12,2.858,2.858,0,0,1-.45-.95,6.617,6.617,0,0,1-.1-1.62V1922m6,10,4.27-3.56a5.9,5.9,0,0,0,1.18-1.12,2.858,2.858,0,0,0,.45-.95,6.617,6.617,0,0,0,.1-1.62V1922m-6,10-4.27,3.56a5.9,5.9,0,0,0-1.18,1.12,2.858,2.858,0,0,0-.45.95,6.617,6.617,0,0,0-.1,1.62V1942m6-10,4.27,3.56a5.9,5.9,0,0,1,1.18,1.12,2.858,2.858,0,0,1,.45.95,6.617,6.617,0,0,1,.1,1.62V1942m-14-20h16m-16,20h16" transform="translate(-2155 -1921)" fill="none" stroke="#E0E4EA" stroke-linecap="round" stroke-linejoin="round" stroke-width="2"/>
</svg>
