<svg width="22" height="12" viewBox="0 0 22 12" fill="none" xmlns="http://www.w3.org/2000/svg">
<path d="M11 5C10.4477 5 10 5.44772 10 6C10 6.55228 10.4477 7 11 7V5ZM12 7C12.5523 7 13 6.55228 13 6C13 5.44772 12.5523 5 12 5V7ZM16 5C15.4477 5 15 5.44772 15 6C15 6.55228 15.4477 7 16 7V5ZM17 7C17.5523 7 18 6.55228 18 6C18 5.44772 17.5523 5 17 5V7ZM6 5C5.44772 5 5 5.44772 5 6C5 6.55228 5.44772 7 6 7V5ZM7 7C7.55228 7 8 6.55228 8 6C8 5.44772 7.55228 5 7 5V7ZM19.9099 1.21799L20.3704 0.330301L20.3621 0.326087L19.9099 1.21799ZM20.78 2.09201L19.8874 2.54292L19.8906 2.54914L20.78 2.09201ZM20.78 9.90799L19.8906 9.45085L19.8874 9.45711L20.78 9.90799ZM19.9099 10.782L20.3622 11.674L20.3704 11.6697L19.9099 10.782ZM2.09009 10.782L1.62955 11.6697L1.63786 11.6739L2.09009 10.782ZM1.21997 9.90799L2.11257 9.45709L2.10937 9.45086L1.21997 9.90799ZM1.21997 2.09201L2.10939 2.54915L2.11255 2.54289L1.21997 2.09201ZM2.09009 1.21799L1.63784 0.326049L1.62959 0.330329L2.09009 1.21799ZM11 7H12V5H11V7ZM16 7H17V5H16V7ZM6 7H7V5H6V7ZM4.19995 2H17.8001V0H4.19995V2ZM17.8001 2C18.3765 2 18.7487 2.00078 19.0323 2.02393C19.304 2.04612 19.4062 2.08381 19.4577 2.10989L20.3621 0.326087C19.9836 0.134176 19.5909 0.0628791 19.1951 0.0305653C18.8112 -0.000776172 18.3435 0 17.8001 0V2ZM19.4494 2.10564C19.6401 2.20458 19.7956 2.361 19.8875 2.5429L21.6726 1.64112C21.3846 1.07102 20.92 0.615442 20.3704 0.330339L19.4494 2.10564ZM19.8906 2.54914C19.9157 2.59794 19.9535 2.69775 19.9759 2.96866C19.9992 3.25155 20 3.62335 20 4.20001H22C22 3.65665 22.0008 3.18844 21.9691 2.80433C21.9365 2.40824 21.8643 2.01406 21.6694 1.63488L19.8906 2.54914ZM20 4.20001V7.79999H22V4.20001H20ZM20 7.79999C20 8.37665 19.9992 8.74846 19.9759 9.03134C19.9535 9.30225 19.9157 9.40206 19.8906 9.45086L21.6694 10.3651C21.8643 9.98594 21.9365 9.59177 21.9691 9.19568C22.0008 8.81156 22 8.34336 22 7.79999H20ZM19.8874 9.45711C19.7956 9.63901 19.6401 9.79543 19.4494 9.89435L20.3704 11.6697C20.92 11.3846 21.3846 10.929 21.6726 10.3589L19.8874 9.45711ZM19.4577 9.89011C19.4062 9.91619 19.304 9.95388 19.0323 9.97607C18.7487 9.99922 18.3765 10 17.8001 10V12C18.3435 12 18.8112 12.0008 19.1951 11.9694C19.5909 11.9371 19.9836 11.8658 20.3621 11.6739L19.4577 9.89011ZM17.8001 10H4.19995V12H17.8001V10ZM4.19995 10C3.62355 10 3.25128 9.99922 2.96767 9.97607C2.69596 9.95388 2.59375 9.91619 2.54232 9.89011L1.63786 11.6739C2.01636 11.8658 2.40914 11.9371 2.80492 11.9694C3.18878 12.0008 3.65648 12 4.19995 12V10ZM2.55061 9.89436C2.3599 9.79542 2.20444 9.63899 2.11255 9.4571L0.327393 10.3589C0.615385 10.929 1.08004 11.3846 1.62957 11.6697L2.55061 9.89436ZM2.10937 9.45086C2.08429 9.40206 2.04645 9.30225 2.02411 9.03134C2.00079 8.74846 2 8.37665 2 7.79999H0C0 8.34335 -0.000791788 8.81156 0.0308778 9.19567C0.0635342 9.59176 0.135683 9.98594 0.330569 10.3651L2.10937 9.45086ZM2 7.79999V4.20001H0V7.79999H2ZM2 4.20001C2 3.62335 2.00079 3.25154 2.02411 2.96866C2.04645 2.69775 2.08429 2.59794 2.10937 2.54914L0.330569 1.63488C0.135684 2.01406 0.0635344 2.40823 0.0308778 2.80432C-0.000791788 3.18844 0 3.65664 0 4.20001H2ZM2.11255 2.54289C2.20444 2.36099 2.3599 2.20457 2.55059 2.10565L1.62959 0.330329C1.08004 0.615426 0.615379 1.07101 0.327388 1.64113L2.11255 2.54289ZM2.54232 2.10989C2.59375 2.08381 2.69596 2.04612 2.96767 2.02393C3.25128 2.00078 3.62355 2 4.19995 2V0C3.65648 0 3.18878 -0.000776172 2.80492 0.0305653C2.40914 0.0628791 2.01636 0.134176 1.63786 0.326087L2.54232 2.10989ZM10.75 6.25C10.75 5.97866 10.9726 5.75 11.25 5.75V7.75C12.087 7.75 12.75 7.07334 12.75 6.25H10.75ZM11.25 5.75C11.5274 5.75 11.75 5.97866 11.75 6.25H9.75C9.75 7.07334 10.413 7.75 11.25 7.75V5.75ZM11.75 6.25C11.75 6.52134 11.5274 6.75 11.25 6.75V4.75C10.413 4.75 9.75 5.42666 9.75 6.25H11.75ZM11.25 6.75C10.9726 6.75 10.75 6.52134 10.75 6.25H12.75C12.75 5.42666 12.087 4.75 11.25 4.75V6.75ZM15.75 6.25C15.75 5.97866 15.9726 5.75 16.25 5.75V7.75C17.087 7.75 17.75 7.07334 17.75 6.25H15.75ZM16.25 5.75C16.5274 5.75 16.75 5.97866 16.75 6.25H14.75C14.75 7.07334 15.413 7.75 16.25 7.75V5.75ZM16.75 6.25C16.75 6.52134 16.5274 6.75 16.25 6.75V4.75C15.413 4.75 14.75 5.42666 14.75 6.25H16.75ZM16.25 6.75C15.9726 6.75 15.75 6.52134 15.75 6.25H17.75C17.75 5.42666 17.087 4.75 16.25 4.75V6.75ZM5.75 6.25C5.75 5.97866 5.97257 5.75 6.25 5.75V7.75C7.08699 7.75 7.75 7.07334 7.75 6.25H5.75ZM6.25 5.75C6.52743 5.75 6.75 5.97866 6.75 6.25H4.75C4.75 7.07334 5.41301 7.75 6.25 7.75V5.75ZM6.75 6.25C6.75 6.52134 6.52743 6.75 6.25 6.75V4.75C5.41301 4.75 4.75 5.42666 4.75 6.25H6.75ZM6.25 6.75C5.97257 6.75 5.75 6.52134 5.75 6.25H7.75C7.75 5.42666 7.08699 4.75 6.25 4.75V6.75Z" fill="#0B86DF"/>
</svg>
