<svg xmlns="http://www.w3.org/2000/svg" width="21.981" height="21.981" viewBox="0 0 21.981 21.981">
  <g id="Group_56897" data-name="Group 56897" transform="translate(-347.493 -255.026)">
    <path id="Path_19254" data-name="Path 19254" d="M897.2,170a1.145,1.145,0,0,1,.528.061.537.537,0,0,1,.22.244,1.016,1.016,0,0,1,.012.494,8,8,0,1,1-8.759-8.759,1.015,1.015,0,0,1,.494.012.529.529,0,0,1,.243.22,1.125,1.125,0,0,1,.062.528v6.4a1.232,1.232,0,0,0,.055.527.489.489,0,0,0,.218.218,1.232,1.232,0,0,0,.527.055Z" transform="translate(-533.5 98)" fill="none" stroke="#E0E4EA" stroke-linecap="round" stroke-linejoin="round" stroke-width="2"/>
    <path id="Path_19255" data-name="Path 19255" d="M894,158.8a1.125,1.125,0,0,1,.062-.528.529.529,0,0,1,.243-.22,1.015,1.015,0,0,1,.494-.012,8,8,0,0,1,7.161,7.161,1.016,1.016,0,0,1-.012.494.53.53,0,0,1-.22.243,1.126,1.126,0,0,1-.528.062h-6.4a1.232,1.232,0,0,1-.527-.055.489.489,0,0,1-.218-.218A1.232,1.232,0,0,1,894,165.2Z" transform="translate(-533.5 98)" fill="none" stroke="#E0E4EA" stroke-linecap="round" stroke-linejoin="round" stroke-width="2"/>
  </g>
</svg>
