<svg height="18" viewBox="0 0 22.785 18" width="22.785" xmlns="http://www.w3.org/2000/svg"><path d="m85.5 654-6.643-6m-5.714 0-6.643 6m-.5-11 8.165 5.715a4.545 4.545 0 0 0 1.351.784 2 2 0 0 0 .967 0 4.545 4.545 0 0 0 1.351-.784l8.166-5.715m-15.2 13h10.4a7.452 7.452 0 0 0 3.162-.327 3 3 0 0 0 1.311-1.311 7.454 7.454 0 0 0 .327-3.162v-6.4a7.454 7.454 0 0 0 -.327-3.162 3 3 0 0 0 -1.311-1.311 7.452 7.452 0 0 0 -3.162-.327h-10.4a7.452 7.452 0 0 0 -3.162.327 3 3 0 0 0 -1.311 1.311 7.454 7.454 0 0 0 -.327 3.162v6.4a7.454 7.454 0 0 0 .327 3.162 3 3 0 0 0 1.311 1.311 7.452 7.452 0 0 0 3.162.327z" fill="none" stroke="#0b86df" stroke-linecap="round" stroke-linejoin="round" stroke-width="2" transform="translate(-64.607 -639)"/></svg>