<svg fill="none" height="21" viewBox="0 0 22 21" width="22" xmlns="http://www.w3.org/2000/svg"><path d="m22 6.11577c0-.55228-.4477-1-1-1s-1 .44772-1 1zm-2 4.00003c0 .5523.4477 1 1 1s1-.4477 1-1zm-10.75-6.50003v1c.55229 0 1-.44771 1-1zm-6.60998.32703.45088.8926.00414-.00211zm-1.31006 1.31097.88942.4571c.00222-.00432.00441-.00866.00657-.01302zm-.17994 6.12703-.92565.3784c.002117.0051.004277.0103.006481.0154zm1.07996 1.083-.38276.9238.00281.0012zm1.77002.152h1c0-.5523-.44772-1-1-1zm.01001 4.696.99556-.0944-.00074-.0073zm1.79004 1.794.09962-.9951-.00218-.0002zm.8999 0-.09744-.9953-.00219.0002zm1.79004-1.794-.99485-.1017-.00069.0073zm.01001-4.696v-1c-.55228 0-1 .4477-1 1zm6.34 1.856-.4804.8771.0047.0025zm1.78.756-.1192-.9929-.0018.0002zm.6901-.411-.8086-.5885c-.0032.0045-.0065.009-.0097.0135zm0-13.40203-.8183.57492c.0032.00453.0065.00904.0097.01352zm-.6901-.41101-.121.99266.0018.00022zm-1.78.75598-.4757-.879622-.0046.002529zm-5.59 1.85602v-1c-.55228 0-1 .44772-1 1zm10.75 2.50001v4.00003h2v-4.00003zm-10.75-3.5h-3.44995v2h3.44995zm-3.44995 0c-.8235 0-1.50131-.00078-2.05152.04421-.56176.04592-1.07854.14452-1.56353.39234l.91004 1.78097c.15502-.07922.37823-.14413.81647-.17996.44979-.03678 1.03199-.03756 1.88854-.03756zm-3.6109.43445c-.75786.38281-1.376614.99567-1.755178 1.75948l1.791978.88815c.18149-.36619.48266-.66935.86494-.86246zm-1.748606 1.74645c-.249863.48618-.3495111 1.00385-.3959172 1.56669-.04541859.55086-.0446268 1.22905-.0446268 2.0524h2c0-.85665.00079-1.43844.03786-1.88806.03609-.43765.10142-.66098.18152-.81683zm-.440544 3.61909v1.20001h2v-1.20001zm0 1.20001c0 .45253-.00052619.84123.0210057 1.16143.0221119.3289.0707062.6574.2033643.982l1.8513-.7568c-.01736-.0425-.04378-.1304-.05917-.3593-.01597-.2376-.0165-.5478-.0165-1.02733zm.230851 2.15883c.306739.7159.871519 1.3044 1.616369 1.613l.76552-1.8477c-.23513-.0974-.43037-.2888-.54355-.553zm1.619179 1.6142c.32631.134.65695.1833.98725.2057.32168.0218.71122.0213 1.16272.0213v-2c-.47855 0-.78902-.0006-1.02734-.0167-.2297-.0156-.31904-.0424-.36273-.0603zm1.14997-.773v4.25h2v-4.25zm0 4.25c0 .2074-.0013.3862.01519.5476l1.98964-.2033c-.00353-.0345-.00483-.0877-.00483-.3443zm.01447.5403c.13521 1.4262 1.26232 2.5553 2.68814 2.6949l.19488-1.9905c-.47432-.0464-.84721-.4213-.89194-.8931zm2.68596 2.6947c.16212.0162.34345.015.54957.015v-2c-.25384 0-.31249-.0013-.35033-.0051zm.54957.015c.20611 0 .38746.0012.54958-.015l-.19926-1.9901c-.03782.0038-.09647.0051-.35032.0051zm.54739-.0148c1.42582-.1396 2.55293-1.2687 2.68814-2.6949l-1.99108-.1887c-.04473.4718-.41762.8467-.89194.8931zm2.68742-2.6876c.01649-.1614.01519-.3402.01519-.5476h-2c0 .2566-.0013.3098-.00483.3443zm.01519-.5476v-4.25h-2v4.25zm-1-3.25h.75v-2h-.75zm.75 0c1.4945 0 3.4587.829 5.1097 1.7331l.9606-1.7542c-1.6689-.9139-4.0248-1.9789-6.0703-1.9789zm5.1143 1.7356c.4731.2559.8779.4769 1.2015.6231.2919.1318.7164.3018 1.1752.2459l-.242-1.9853c.1388-.0169.1633.0401-.1098-.0833-.2414-.109-.5667-.2855-1.0735-.5596zm2.3749.8692c.5817-.0698 1.0558-.3546 1.3891-.8289l-1.6365-1.1499c-.0088.0127-.0126.0158-.0102.0134.0012-.0011.0035-.0032.007-.0058.0035-.0027.0076-.0055.0121-.0082s.0088-.0049.0126-.0067c.0038-.0017.0065-.0026.0076-.003.0025-.0008-.0031.0014-.0201.0034zm1.3794-.8154c.2694-.3702.3288-.8106.3544-1.1277.0278-.3436.027-.7836.027-1.2877h-2c0 .5399-.0008.8829-.0205 1.1265-.0218.2701-.0575.2212.022.112zm.3814-2.4154v-9.74806h-2v9.74806zm0-9.74806c0-.50415.0008-.94409-.027-1.28771-.0256-.31712-.085-.7575-.3544-1.127691l-1.6171 1.176871c-.0795-.10921-.0438-.1581-.022.11201.0197.24361.0205.58666.0205 1.12652zm-.3717-2.401881c-.3333-.474291-.8074-.7591585-1.3891-.8289716l-.2384 1.9857526c.017.00203.0226.00419.0201.00339-.0011-.00038-.0038-.00132-.0076-.00304s-.0081-.00393-.0126-.00664-.0086-.00551-.0121-.00817c-.0035-.00265-.0058-.00475-.007-.00587-.0024-.00236.0014.00072.0102.01338zm-1.3873-.828749c-.4588-.0559208-.8833.114082-1.1752.245952-.3236.146199-.7284.367183-1.2015.623069l.9514 1.759219c.5068-.27408.8321-.45059 1.0735-.55963.2731-.12338.2486-.06638.1098-.0833zm-2.3813.871537c-1.651.904113-3.6152 1.733113-5.1097 1.733113v2c2.0455 0 4.4014-1.06503 6.0703-1.97892zm-6.1097 2.733113v.00001h2v-.00001z" fill="#fff"/></svg>