<svg xmlns="http://www.w3.org/2000/svg" width="20" height="20.729" viewBox="0 0 20 20.729">
  <path id="Path_20143" data-name="Path 20143" d="M339,1486.57a4.335,4.335,0,0,1,.074-1.13,1.9,1.9,0,0,1,.318-.65,4.274,4.274,0,0,1,.843-.75l6.783-5.28a2.315,2.315,0,0,1,.721-.46,1.149,1.149,0,0,1,.522,0,2.315,2.315,0,0,1,.721.46l6.783,5.28a4.274,4.274,0,0,1,.843.75,1.9,1.9,0,0,1,.318.65,4.335,4.335,0,0,1,.074,1.13v7.23a4.986,4.986,0,0,1-.218,2.11,2.018,2.018,0,0,1-.874.87,4.928,4.928,0,0,1-2.108.22H342.2a4.928,4.928,0,0,1-2.108-.22,2.018,2.018,0,0,1-.874-.87,4.986,4.986,0,0,1-.218-2.11Z" transform="translate(-338 -1477.271)" fill="none" stroke="#0b86df" stroke-linecap="round" stroke-linejoin="round" stroke-width="2"/>
</svg>
