<svg xmlns="http://www.w3.org/2000/svg" width="20" height="20" viewBox="0 0 20 20">
  <path id="Path_19262" data-name="Path 19262" d="M2895,365h.01m-.01,6a6,6,0,1,0-6-6,7.129,7.129,0,0,0,.05.807,3.612,3.612,0,0,1,.07.789.729.729,0,0,1-.12.346,2.223,2.223,0,0,1-.42.479l-5.11,5.11a2.172,2.172,0,0,0-.32.361.79.79,0,0,0-.12.289,1.97,1.97,0,0,0-.03.482V375.4a2.461,2.461,0,0,0,.11,1.054.969.969,0,0,0,.44.437,2.453,2.453,0,0,0,1.05.109h1.74a2.137,2.137,0,0,0,.48-.028,1.046,1.046,0,0,0,.29-.119,2.084,2.084,0,0,0,.36-.322l5.11-5.11a2.691,2.691,0,0,1,.48-.426.825.825,0,0,1,.34-.117,3.738,3.738,0,0,1,.79.068A6.126,6.126,0,0,0,2895,371Z" transform="translate(-2882 -358)" fill="none" stroke="#0b86df" stroke-linecap="round" stroke-linejoin="round" stroke-width="2"/>
</svg>
