<svg height="20.625" viewBox="0 0 20.624 20.625" width="20.624" xmlns="http://www.w3.org/2000/svg"><path d="m616.38 724.853a14.709 14.709 0 0 0 6.856 6.857 1.826 1.826 0 0 0 .266.112 1.045 1.045 0 0 0 .862-.147 2 2 0 0 0 .239-.219 5.005 5.005 0 0 1 .7-.639 2 2 0 0 1 2.18 0 5 5 0 0 1 .7.639l.2.2a5.014 5.014 0 0 1 .942 1.082 2 2 0 0 1 0 1.806 5.013 5.013 0 0 1 -.942 1.082l-.157.158a5.552 5.552 0 0 1 -1.155 1 3.371 3.371 0 0 1 -1.478.384 4.276 4.276 0 0 1 -1.26-.241 19.157 19.157 0 0 1 -13.157-13.158 4.265 4.265 0 0 1 -.241-1.259 3.372 3.372 0 0 1 .384-1.478 5.521 5.521 0 0 1 1-1.155l.157-.158a5.018 5.018 0 0 1 1.083-.941 2 2 0 0 1 1.8 0 5 5 0 0 1 1.083.941l.195.2a5.021 5.021 0 0 1 .638.7 2 2 0 0 1 0 2.18 5.027 5.027 0 0 1 -.638.7 2.038 2.038 0 0 0 -.22.238 1.049 1.049 0 0 0 -.147.862 1.654 1.654 0 0 0 .11.254z" fill="none" stroke="#0b86df" stroke-linecap="round" stroke-linejoin="round" stroke-width="2" transform="translate(-609.93 -717.535)"/></svg>