<svg width="84" height="84" viewBox="0 0 84 84" fill="none" xmlns="http://www.w3.org/2000/svg">
<path d="M35.9981 64.637C35.9981 63.5325 35.1027 62.637 33.9981 62.637C32.8936 62.637 31.9981 63.5325 31.9981 64.637H35.9981ZM51.9972 64.637C51.9972 63.5325 51.1018 62.637 49.9972 62.637C48.8927 62.637 47.9972 63.5325 47.9972 64.637H51.9972ZM43.9977 2C43.9977 0.89543 43.1023 0 41.9977 0C40.8931 0 39.9977 0.89543 39.9977 2H43.9977ZM39.9977 5.99977C39.9977 7.10434 40.8931 7.99977 41.9977 7.99977C43.1023 7.99977 43.9977 7.10434 43.9977 5.99977H39.9977ZM5.99977 43.9977C7.10434 43.9977 7.99977 43.1022 7.99977 41.9977C7.99977 40.8931 7.10434 39.9977 5.99977 39.9977V43.9977ZM2 39.9977C0.89543 39.9977 0 40.8931 0 41.9977C0 43.1022 0.89543 43.9977 2 43.9977V39.9977ZM16.1786 19.0071C16.9597 19.7881 18.226 19.7881 19.0071 19.0071C19.7881 18.226 19.7881 16.9597 19.0071 16.1786L16.1786 19.0071ZM15.0073 12.1789C14.2262 11.3978 12.9599 11.3978 12.1789 12.1789C11.3978 12.9599 11.3978 14.2262 12.1789 15.0073L15.0073 12.1789ZM66.582 16.1786C65.8009 16.9597 65.8009 18.226 66.582 19.0071C67.363 19.7881 68.6293 19.7881 69.4104 19.0071L66.582 16.1786ZM73.4102 15.0073C74.1912 14.2262 74.1912 12.9599 73.4102 12.1789C72.6291 11.3978 71.3628 11.3978 70.5817 12.1789L73.4102 15.0073ZM81.9954 43.9977C83.0999 43.9977 83.9954 43.1022 83.9954 41.9977C83.9954 40.8931 83.0999 39.9977 81.9954 39.9977V43.9977ZM77.9956 39.9977C76.891 39.9977 75.9956 40.8931 75.9956 41.9977C75.9956 43.1022 76.891 43.9977 77.9956 43.9977V39.9977ZM31.9981 64.637V74.0005H35.9981V64.637H31.9981ZM31.9981 74.0005C31.9981 79.528 36.4962 84 41.9977 84V80C38.6989 80 35.9981 77.3125 35.9981 74.0005H31.9981ZM41.9977 84C47.4992 84 51.9972 79.528 51.9972 74.0005H47.9972C47.9972 77.3125 45.2965 80 41.9977 80V84ZM51.9972 74.0005V64.637H47.9972V74.0005H51.9972ZM39.9977 2V5.99977H43.9977V2H39.9977ZM5.99977 39.9977H2V43.9977H5.99977V39.9977ZM19.0071 16.1786L15.0073 12.1789L12.1789 15.0073L16.1786 19.0071L19.0071 16.1786ZM69.4104 19.0071L73.4102 15.0073L70.5817 12.1789L66.582 16.1786L69.4104 19.0071ZM81.9954 39.9977H77.9956V43.9977H81.9954V39.9977ZM63.9963 41.9977C63.9963 54.1475 54.1334 63.9963 41.9977 63.9963V67.9963C56.3409 67.9963 67.9963 56.3584 67.9963 41.9977H63.9963ZM41.9977 63.9963C29.8619 63.9963 19.9991 54.1475 19.9991 41.9977H15.9991C15.9991 56.3584 27.6545 67.9963 41.9977 67.9963V63.9963ZM19.9991 41.9977C19.9991 29.8479 29.8619 19.9991 41.9977 19.9991V15.9991C27.6545 15.9991 15.9991 27.637 15.9991 41.9977H19.9991ZM41.9977 19.9991C54.1334 19.9991 63.9963 29.8479 63.9963 41.9977H67.9963C67.9963 27.637 56.3409 15.9991 41.9977 15.9991V19.9991Z" fill="#F97066"/>
</svg>
