<svg xmlns="http://www.w3.org/2000/svg" width="20" height="20" viewBox="0 0 20 20">
  <path id="Path_20142" data-name="Path 20142" d="M79,657v-5.4a2.484,2.484,0,0,0-.109-1.054,1,1,0,0,0-.437-.437A2.484,2.484,0,0,0,77.4,650H74.6a2.484,2.484,0,0,0-1.054.109,1,1,0,0,0-.437.437A2.484,2.484,0,0,0,73,651.6V657m10,0V642.2a4.969,4.969,0,0,0-.218-2.108,2,2,0,0,0-.874-.874A4.968,4.968,0,0,0,79.8,639H72.2a4.968,4.968,0,0,0-2.108.218,2,2,0,0,0-.874.874A4.969,4.969,0,0,0,69,642.2V657m16,0H67m6.5-13h.01m4.99,0h.01M74,644a.5.5,0,1,1-.5-.5A.5.5,0,0,1,74,644Zm5,0a.5.5,0,1,1-.5-.5A.5.5,0,0,1,79,644Z" transform="translate(-66 -638)" fill="none" stroke="#0b86df" stroke-linecap="round" stroke-linejoin="round" stroke-width="2"/>
</svg>
