<svg fill="none" height="20" viewBox="0 0 20 20" width="20" xmlns="http://www.w3.org/2000/svg"><path d="m19.4449 10.9925c.0568-.5493-.3425-1.04073-.8918-1.09754-.5494-.0568-1.0408.34244-1.0976.89184zm-5.1947 6.3674-.4988-.8667-.0012.0007zm-11.60995-3.1101.86602-.5001-.00154-.0026zm.61448-.9327c-.27763-.4774-.88972-.6394-1.36716-.3617-.47743.2776-.63941.8897-.36179 1.3671zm-2.699132-4.31008c-.056806.54936.342484 1.04078.891842 1.09758.54935.0568 1.04074-.34251 1.09755-.89186zm5.194642-6.36723.49882.86671.00122-.0007zm11.60996 3.10999-.866.50003.0016.00265zm-.6144.93261c.2776.47744.8897.63942 1.3671.36179.4775-.27762.6394-.88972.3618-1.36715zm-16.220978 9.12671c-.143996.5332.171501 1.0822.704688 1.2262.53318.1439 1.08214-.1715 1.22614-.7047zm1.705398-2.4792.26162-.9652c-.25613-.0694-.52936-.0342-.7595.0979-.23015.1321-.39834.3503-.46753.6065zm2.46836 1.7051c.53305.1445 1.08231-.1705 1.2268-.7035.14448-.5331-.17051-1.0823-.70356-1.2268zm10.60332-10.07036c-.5331-.14447-1.0823.17055-1.2268.7036-.1445.53306.1705 1.0823.7036 1.22676zm2.4684 1.70505-.2616.96518c.2561.06942.5293.03418.7595-.09794.2301-.13213.3983-.35031.4675-.6065zm1.7054-2.47913c.144-.53318-.1715-1.08215-.7047-1.22615s-1.0822.17149-1.2262.70467zm-8.4755 1.30921c0-.55228-.4477-1-1-1-.55224 0-.99996.44772-.99996 1zm-1 4.5h-.99996c0 .35123.1843.67673.48551.85753zm1.9855 2.35753c.4736.2841 1.0879.1305 1.372-.343.2842-.4736.1306-1.0879-.343-1.372zm5.4698-1.5705c-.2382 2.3038-1.5438 4.4629-3.7041 5.7064l.9977 1.7334c2.7396-1.5769 4.3942-4.3177 4.6958-7.2341zm-3.7053 5.7071c-3.5917 2.0737-8.17017.8475-10.24393-2.7442l-1.73203 1.0001c2.6262 4.5484 8.42786 6.102 12.97606 3.4761zm-10.24547-2.7468-.25-.43-1.72895 1.0054.25.4299zm-.95974-4.53436c.23823-2.30383 1.54379-4.46293 3.70407-5.70624l-.99763-1.73342c-2.73962 1.57675-4.39426 4.31755-4.695832 7.23394zm3.70529-5.70694c3.59174-2.07387 8.17022-.84757 10.24392 2.74401l1.732-1.00006c-2.6261-4.548316-8.42784-6.102059-12.97599-3.47597zm10.24552 2.74666.25.42993 1.7289-1.00536-.25-.42993zm-14.04015 10.07814.73999-2.74-1.93083-.5215-.739988 2.74zm-.48705-2.0356 2.72998.74.52324-1.9303-2.72998-.74zm12.8101-7.4 2.73.73987.5231-1.93036-2.7299-.73987zm3.957.03543.74-2.73987-1.9309-.52148-.7399 2.73987zm-9.73546-1.43066v4.5h1.99996v-4.5zm.48551 5.35753 2.49995 1.5 1.029-1.715-2.5-1.50002z" fill="#0b86df"/></svg>