<svg height="752" viewBox="0 0 646.215 752" width="646.215" xmlns="http://www.w3.org/2000/svg"><g fill="#4B5474"><g transform="translate(.5 3)"><path d="m560.385 237.482c-.04-10.936-.061-21.871-.125-32.807-.253-43.284-18.5-77.074-53.184-102.689-29.336-21.665-62.577-33.695-97.66-41.6a319.192 319.192 0 0 0 -40.015-6.7c-5.27-.5-7.711 1.662-9.778 6.009-7.465 15.7-4.31-49.642 3.091-34.727 1.537 3.1 4.24 3.337 7.118 3.674a401.784 401.784 0 0 1 83.022 18.358c27.518 9.364 53.227 22.185 75.68 40.894 30.561 25.464 50.356 57.184 55.392 97.213 2.489 19.784 1.023 39.715 1.873 59.549 1.017 23.762.53 47.57 2.525 71.3 1.51 17.955 8.7 33.115 20.911 46.228 8.036 8.626 15.568 17.725 22.849 27.006 5.678 7.238 12.151 24.246 12.151 24.246a18.083 18.083 0 0 1 1.48 6.249 12.728 12.728 0 0 1 -1.48 5.563c-5.159 11.064-16.824 14.137-25.644 20.658-4.617 3.413-8.19 7.751-12.376 11.518-1.778 1.6-1.7 3.236-.155 5.11 11.118 13.475 5.481 29.295-4.833 38-2.568 2.166-4.1 4.36-1.874 7.782 9.591 14.75 6.831 28.139-8.791 36.023-6.954 3.51-8.034 5.832-5.83 13.484 5.1 17.723 5.6 35.873-3.589 52.85-7.61 14.064-19.671 21.434-35.6 23.388-13.263 1.627-26.025-1.4-39-2.562-5.641-.505-11.352-.239-17.031-.323a30.215 30.215 0 0 0 -12.042-.066c-16.3-.551-31.711 2.787-46.006 10.766-11.844 6.61-20.508 16.379-27.439 27.87-1.895 3.141-1.58 5.624 1.275 7.977 8.421 6.942-40.942-10.225-29.635-10.857 3.276-.183 4.824-1.176 6.244-4.143 14.62-30.558 39.559-47.723 72.279-53.423 16.017-2.787 32.355-2.1 48.7-.644 12.694 1.135 25.335 3.343 38.181 3.021 12.616-.316 20.653-7.588 23.286-19.823 2.622-12.181-.419-23.487-3.239-34.96-1.544-6.286-3.035-12.372-.96-18.995 2.324-7.417 7.229-12.082 14.956-12.933 2-.22 4.809 1.336 5.836-1.236 1.127-2.822-1.982-4.011-3.441-5.748-7.286-8.673-7.729-17.942-1.672-25.689 2.121-2.712 5.013-3.9 7.594-5.743 6.466-4.6 6.957-6.649 3.09-12.6-7.732-11.894-6.446-21.168 3.946-32.39a102.672 102.672 0 0 1 26.9-21.249c3.324-1.776 3.787-3.4 2.081-6.642-4.784-9.082-11.809-16.44-18.269-24.214-9.5-11.436-20.115-21.983-27.321-35.206-5.525-10.137-8.053-21.105-9.7-32.429-3.743-25.784-2.081-51.734-2.737-77.612-1.158-2.119.257-4.633-1.03-6.732"/><path d="m477.466 631.109a13.832 13.832 0 0 1 12.042.065z"/><path d="m560.385 237.482c1.944 2 1.061 4.43 1.031 6.732-1.907-2.005-.936-4.45-1.031-6.732"/></g><circle cx="326.5" cy="44" r="44"/><circle cx="87.5" cy="44" r="30"/><circle cx="249.5" cy="109" r="30"/><circle cx="165.5" cy="176" r="24"/><circle cx="397.5" cy="270" r="24"/><circle cx="171.5" cy="554" r="24"/><circle cx="232.5" cy="176" r="30"/><circle cx="162.5" cy="368" r="30"/><circle cx="82.5" cy="468" r="30"/><circle cx="470.5" cy="176" r="43"/><circle cx="305.5" cy="270" r="43"/><circle cx="262.5" cy="368" r="43"/><circle cx="423.5" cy="468" r="43"/><circle cx="255.5" cy="554" r="43"/><circle cx="377.5" cy="709" r="43"/><circle cx="492.5" cy="554" r="43"/><circle cx="500.5" cy="368" r="43"/><path d="m238 12h-238a12 12 0 0 1 -12-12 12 12 0 0 1 12-12h238a12 12 0 0 1 12 12 12 12 0 0 1 -12 12z" transform="translate(85 44.5)"/><path d="m238 12h-238a12 12 0 0 1 -12-12 12 12 0 0 1 12-12h238a12 12 0 0 1 12 12 12 12 0 0 1 -12 12z" transform="translate(12 109.5)"/><path d="m238 12h-238a12 12 0 0 1 -12-12 12 12 0 0 1 12-12h238a12 12 0 0 1 12 12 12 12 0 0 1 -12 12z" transform="translate(232 176.5)"/><path d="m238 12h-238a12 12 0 0 1 -12-12 12 12 0 0 1 12-12h238a12 12 0 0 1 12 12 12 12 0 0 1 -12 12z" transform="translate(254 368.5)"/><path d="m238 12h-238a12 12 0 0 1 -12-12 12 12 0 0 1 12-12h238a12 12 0 0 1 12 12 12 12 0 0 1 -12 12z" transform="translate(254 554.5)"/><path d="m273 12h-273a12 12 0 0 1 -12-12 12 12 0 0 1 12-12h273a12 12 0 0 1 12 12 12 12 0 0 1 -12 12z" transform="translate(12 270.5)"/><path d="m315 12h-315a12 12 0 0 1 -12-12 12 12 0 0 1 12-12h315a12 12 0 0 1 12 12 12 12 0 0 1 -12 12z" transform="translate(93 468.5)"/></g></svg>