<svg height="39.07" viewBox="0 0 203.08 39.07" width="203.08" xmlns="http://www.w3.org/2000/svg" xmlns:xlink="http://www.w3.org/1999/xlink"><clipPath id="a"><path d="m0 0h203.081v39.07h-203.081z"/></clipPath><g clip-path="url(#a)" fill="#fff"><path d="m52.625 25.319 1.067-2.394a9.191 9.191 0 0 0 5.476 1.825c2.583 0 3.673-.924 3.673-2.157 0-3.579-9.86-1.232-9.86-7.4 0-2.679 2.133-4.954 6.684-4.954a10.483 10.483 0 0 1 5.523 1.47l-.972 2.394a9.22 9.22 0 0 0 -4.574-1.3c-2.56 0-3.6.995-3.6 2.252 0 3.531 9.837 1.232 9.837 7.324 0 2.655-2.157 4.931-6.708 4.931a10.7 10.7 0 0 1 -6.543-1.992"/><path d="m79.243 19.653v7.419h-2.8v-1.54a4.486 4.486 0 0 1 -3.982 1.706c-2.892 0-4.717-1.588-4.717-3.792 0-2.11 1.422-3.769 5.262-3.769h3.274v-.19c0-1.73-1.043-2.749-3.153-2.749a6.265 6.265 0 0 0 -3.839 1.256l-1.162-2.157a8.9 8.9 0 0 1 5.357-1.564c3.651 0 5.76 1.73 5.76 5.38m-2.963 3.461v-1.47h-3.058c-2.014 0-2.56.759-2.56 1.683 0 1.067.9 1.754 2.418 1.754a3.227 3.227 0 0 0 3.2-1.967"/><path d="m94.649 14.415-5.428 12.657h-3.058l-5.428-12.657h3.082l3.934 9.385 4.049-9.385z"/><path d="m108.111 14.415-5.428 12.657h-3.058l-5.425-12.657h3.082l3.934 9.386 4.054-9.386z"/><path d="m121.573 14.415-5.925 13.677c-1.161 2.868-2.774 3.745-4.883 3.745a5.237 5.237 0 0 1 -3.39-1.162l1.185-2.181a3.208 3.208 0 0 0 2.181.878c1.043 0 1.659-.5 2.228-1.754l.214-.5-5.524-12.705h3.082l3.982 9.363 4.006-9.363z"/><path d="m138.448 22.569c0 2.845-2.227 4.5-6.494 4.5h-8.249v-16.588h7.775c3.982 0 6.115 1.683 6.115 4.314a3.979 3.979 0 0 1 -2.133 3.65 4.086 4.086 0 0 1 2.986 4.124m-11.661-9.669v4.575h4.361c2.133 0 3.341-.758 3.341-2.275 0-1.541-1.208-2.3-3.341-2.3zm8.556 9.363c0-1.659-1.256-2.394-3.579-2.394h-4.977v4.788h4.977c2.323 0 3.579-.735 3.579-2.394"/><path d="m148.781 14.273v2.82a3.783 3.783 0 0 0 -.688-.07c-2.252 0-3.673 1.327-3.673 3.911v6.139h-2.964v-12.658h2.821v1.849c.854-1.327 2.4-1.991 4.5-1.991"/><path d="m150.131 20.744a6.371 6.371 0 0 1 6.732-6.471c3.935 0 6.756 2.678 6.756 6.471a6.749 6.749 0 0 1 -13.488 0m10.5 0a3.762 3.762 0 1 0 -7.514 0 3.762 3.762 0 1 0 7.514 0"/><path d="m171.629 21.645-2.2 2.086v3.342h-2.963v-17.588h2.963v10.615l6.139-5.688h3.556l-5.286 5.309 5.783 7.348h-3.6z"/><path d="m192.866 21.692h-9.932a3.831 3.831 0 0 0 4.1 3.034 4.535 4.535 0 0 0 3.437-1.375l1.588 1.826a6.419 6.419 0 0 1 -5.1 2.062c-4.243 0-6.993-2.726-6.993-6.5a6.3 6.3 0 0 1 6.543-6.471 6.173 6.173 0 0 1 6.4 6.542c0 .237-.024.593-.048.877m-9.955-1.967h7.182a3.446 3.446 0 0 0 -3.579-3.082 3.5 3.5 0 0 0 -3.6 3.082"/><path d="m203.081 14.273v2.82a3.783 3.783 0 0 0 -.688-.07c-2.252 0-3.673 1.327-3.673 3.911v6.139h-2.964v-12.658h2.821v1.849c.854-1.327 2.4-1.991 4.5-1.991"/><path d="m29.139 12.495c0-.568 0-1.137-.007-1.7a6.361 6.361 0 0 0 -2.765-5.332 13.234 13.234 0 0 0 -5.074-2.163 16.608 16.608 0 0 0 -2.079-.348.45.45 0 0 0 -.508.312c-.388.816-.224-2.579.161-1.8.08.161.221.174.371.191a20.822 20.822 0 0 1 4.313.954 12.156 12.156 0 0 1 3.933 2.124 7.664 7.664 0 0 1 2.878 5.05c.129 1.028.053 2.063.1 3.094.053 1.235.028 2.469.132 3.7a3.906 3.906 0 0 0 1.086 2.4c.418.449.809.922 1.185 1.4a6.511 6.511 0 0 1 .631 1.26.937.937 0 0 1 .077.325.649.649 0 0 1 -.077.289c-.267.575-.874.735-1.332 1.074a8.7 8.7 0 0 0 -.643.6.167.167 0 0 0 -.037.234.148.148 0 0 0 .029.032 1.372 1.372 0 0 1 -.2 1.932l-.055.043c-.133.112-.213.226-.1.4a1.166 1.166 0 0 1 -.458 1.876c-.361.183-.417.3-.3.7a3.535 3.535 0 0 1 -.187 2.746 2.28 2.28 0 0 1 -1.849 1.214 9.427 9.427 0 0 1 -2.027-.133c-.3-.027-.592-.013-.888-.017a1.576 1.576 0 0 0 -.627 0 4.5 4.5 0 0 0 -2.389.559 3.9 3.9 0 0 0 -1.427 1.448.281.281 0 0 0 .041.4.247.247 0 0 0 .026.019c.437.36-2.128-.532-1.54-.564a.323.323 0 0 0 .324-.216 4.849 4.849 0 0 1 3.753-2.776 9.74 9.74 0 0 1 2.53-.033 17.333 17.333 0 0 0 1.984.157 1.194 1.194 0 0 0 1.21-1.03 3.954 3.954 0 0 0 -.168-1.816 1.76 1.76 0 0 1 -.051-.988.879.879 0 0 1 .778-.671c.1-.012.249.069.3-.065s-.1-.208-.179-.3a.993.993 0 0 1 -.087-1.334 1.634 1.634 0 0 1 .4-.3c.336-.239.361-.346.161-.655a1.2 1.2 0 0 1 .2-1.679 5.325 5.325 0 0 1 1.4-1.1c.173-.092.2-.177.107-.345a7.491 7.491 0 0 0 -.949-1.258 11.918 11.918 0 0 1 -1.419-1.829 4.926 4.926 0 0 1 -.5-1.684 33.934 33.934 0 0 1 -.143-4.033c-.06-.109.014-.241-.053-.349"/><path d="m24.833 32.945a.716.716 0 0 1 .626 0z"/><path d="m29.139 12.495c.1.1.055.23.053.35-.1-.1-.048-.231-.053-.35"/><path d="m16.963 0a2.286 2.286 0 1 1 -2.286 2.286 2.286 2.286 0 0 1 2.286-2.286"/><path d="m4.546.728a1.559 1.559 0 1 1 -1.558 1.558 1.558 1.558 0 0 1 1.558-1.558"/><path d="m12.962 4.1a1.559 1.559 0 1 1 -1.562 1.562 1.558 1.558 0 0 1 1.562-1.562"/><path d="m8.6 7.9a1.248 1.248 0 1 1 -1.249 1.245 1.247 1.247 0 0 1 1.249-1.245"/><path d="m20.653 12.781a1.248 1.248 0 1 1 -1.247 1.247 1.247 1.247 0 0 1 1.247-1.247"/><path d="m8.91 27.536a1.248 1.248 0 1 1 -1.247 1.247 1.247 1.247 0 0 1 1.247-1.247"/><path d="m12.08 7.585a1.558 1.558 0 1 1 -1.558 1.558 1.558 1.558 0 0 1 1.558-1.558"/><path d="m8.442 17.561a1.558 1.558 0 1 1 -1.558 1.558 1.558 1.558 0 0 1 1.558-1.558"/><path d="m4.286 22.756a1.558 1.558 0 1 1 -1.558 1.558 1.558 1.558 0 0 1 1.558-1.558"/><path d="m24.444 6.91a2.234 2.234 0 1 1 -2.234 2.234 2.234 2.234 0 0 1 2.234-2.234"/><path d="m15.873 11.793a2.234 2.234 0 1 1 -2.234 2.234 2.234 2.234 0 0 1 2.234-2.234"/><path d="m13.637 16.885a2.234 2.234 0 1 1 -2.237 2.234 2.234 2.234 0 0 1 2.234-2.234"/><path d="m22 22.081a2.234 2.234 0 1 1 -2.234 2.234 2.234 2.234 0 0 1 2.234-2.234"/><path d="m13.274 26.55a2.234 2.234 0 1 1 -2.234 2.234 2.234 2.234 0 0 1 2.234-2.234"/><path d="m19.612 34.6a2.234 2.234 0 1 1 -2.234 2.234 2.234 2.234 0 0 1 2.234-2.234"/><path d="m25.588 26.55a2.234 2.234 0 1 1 -2.234 2.234 2.234 2.234 0 0 1 2.234-2.234"/><path d="m26 16.885a2.234 2.234 0 1 1 -2.234 2.234 2.234 2.234 0 0 1 2.234-2.234"/><path d="m16.78 2.936h-12.365a.623.623 0 0 1 -.623-.623.623.623 0 0 1 .623-.623h12.365a.624.624 0 0 1 0 1.247z"/><path d="m12.988 6.313h-12.365a.623.623 0 0 1 -.623-.623.623.623 0 0 1 .623-.623h12.365a.624.624 0 0 1 0 1.247z"/><path d="m24.419 9.794h-12.365a.623.623 0 0 1 -.623-.623.623.623 0 0 1 .623-.623h12.365a.624.624 0 0 1 0 1.247z"/><path d="m25.562 19.769h-12.362a.623.623 0 0 1 -.623-.623.623.623 0 0 1 .623-.623h12.362a.624.624 0 0 1 0 1.247z"/><path d="m25.562 29.433h-12.362a.623.623 0 0 1 -.623-.623.623.623 0 0 1 .623-.623h12.362a.624.624 0 0 1 0 1.247"/><path d="m14.807 14.678h-14.184a.623.623 0 0 1 -.623-.623.623.623 0 0 1 .623-.623h14.184a.624.624 0 0 1 0 1.247z"/><path d="m21.195 24.964h-16.363a.623.623 0 0 1 -.623-.623.623.623 0 0 1 .623-.623h16.363a.624.624 0 0 1 0 1.247"/></g></svg>