<svg width="18" height="22" viewBox="0 0 18 22" fill="none" xmlns="http://www.w3.org/2000/svg">
<path fill-rule="evenodd" clip-rule="evenodd" d="M8.30006 20.5475C8.52003 20.6765 8.62989 20.7405 8.79005 20.7745C8.90992 20.8005 9.0901 20.8005 9.20997 20.7745C9.37013 20.7405 9.47999 20.6765 9.69996 20.5475C11.6499 19.4105 17 15.8405 17 10.9325V6.14952C17 5.35051 17 4.95051 16.8701 4.6075C16.75 4.30351 16.5701 4.03252 16.3201 3.81752C16.0501 3.57451 15.6699 3.43452 14.9199 3.15352L9.56007 1.14351C9.35011 1.06551 9.25001 1.02651 9.1399 1.01051C9.05006 0.996497 8.94996 0.996497 8.86011 1.01051C8.75 1.0265 8.6499 1.0655 8.43994 1.14351L3.08008 3.15352C2.33008 3.43453 1.94995 3.57451 1.67993 3.81752C1.42993 4.03252 1.25 4.30351 1.12988 4.6075C1 4.95052 1 5.35051 1 6.14952V10.9325C1 15.8405 6.3501 19.4105 8.30005 20.5475H8.30006Z" stroke="#0B86DF" stroke-width="2" stroke-linecap="round" stroke-linejoin="round"/>
</svg>
