<svg height="21.119" viewBox="0 0 24.621 21.119" width="24.621" xmlns="http://www.w3.org/2000/svg"><g fill="none" stroke="#0985de" stroke-linecap="round" stroke-linejoin="round" stroke-width="1.5"><path d="m15.75 2.065a9.75 9.75 0 0 0 -15.75 7.684v2.251" transform="translate(2.561 .808)"/><path d="m0 9.939a9.751 9.751 0 0 0 15.75-7.689v-2.25" transform="translate(6.311 8.307)"/><path d="m0 0 1.5 1.5 1.5-1.5" transform="translate(1.061 11.307)"/><path d="m3 1.5-1.5-1.5-1.5 1.5" transform="translate(20.561 8.307)"/><path d="m6 0v2.25a.75.75 0 0 1 -.75.75h-4.5a.75.75 0 0 1 -.75-.75v-2.25" transform="translate(9.311 12.057)"/><path d="m0 3.75 4.5-3.75 4.5 3.75" transform="translate(7.811 6.057)"/></g></svg>