<svg xmlns="http://www.w3.org/2000/svg" width="22" height="20" viewBox="0 0 22 20">
  <path id="Path_19256" data-name="Path 19256" d="M77,1601c0,1.1-2.462,2-5.5,2s-5.5-.9-5.5-2m11,0c0-1.1-2.462-2-5.5-2s-5.5.9-5.5,2m11,0v1.5M66,1601v12c0,1.1,2.462,2,5.5,2m0-8c-.169,0-.335,0-.5-.01-2.8-.09-5-.95-5-1.99m5.5,6c-3.038,0-5.5-.9-5.5-2m20-1.5c0,1.1-2.462,2-5.5,2s-5.5-.9-5.5-2m11,0c0-1.1-2.462-2-5.5-2s-5.5.9-5.5,2m11,0v7.5c0,1.1-2.462,2-5.5,2s-5.5-.9-5.5-2v-7.5m11,3.75c0,1.1-2.462,2-5.5,2s-5.5-.9-5.5-2" transform="translate(-65 -1598)" fill="none" stroke="#0b86df" stroke-linecap="round" stroke-linejoin="round" stroke-width="2"/>
</svg>
